<svg width="136" height="136" fill="none" xmlns="http://www.w3.org/2000/svg"><path d="M115 68.5c0 5.453-.831 10.715-2.378 15.658a35.746 35.746 0 0 1-.542 1.64 50.623 50.623 0 0 1-2.115 5.163 50.155 50.155 0 0 1-2.188 4.126 52.184 52.184 0 0 1-5.4 7.561 53.119 53.119 0 0 1-6.964 6.76A52.298 52.298 0 0 1 62.5 121C33.506 121 10 97.494 10 68.5S33.505 16 62.5 16C91.494 16 115 39.506 115 68.5Z" fill="url('#paint0_linear_401_1805')"/><path d="M62.723 33C60.667 33 59 63.023 59 65.1c0 1.324.678 2.486 1.702 3.156L99.057 107A53.008 53.008 0 0 0 113 83.814C104.435 75.227 62.723 33 62.723 33Z" fill="url('#paint1_linear_401_1805')"/><path d="M63 72a3 3 0 1 0 0-6 3 3 0 0 0 0 6Z" fill="url('#paint2_linear_401_1805')"/><path d="M62.5 27c-.414 0-.789.144-1.06.377-.272.232-.44.554-.44.909v9.428c0 .266.094.514.256.719.108.137.245.255.405.347.08.047.165.086.255.119.18.065.377.101.584.101.414 0 .789-.144 1.06-.377.272-.232.44-.554.44-.909v-9.428c0-.71-.672-1.286-1.5-1.286Z" fill="url('#paint3_linear_401_1805')"/><path d="M62.5 98c-.828 0-1.5.624-1.5 1.393v10.214c0 .133.026.259.064.38.178.583.75 1.013 1.436 1.013.207 0 .404-.039.584-.11.538-.211.916-.706.916-1.283V99.393c0-.77-.672-1.393-1.5-1.393Z" fill="url('#paint4_linear_401_1805')"/><path d="M103.607 67H93.393c-.77 0-1.393.671-1.393 1.5s.624 1.5 1.393 1.5h10.214c.769 0 1.393-.671 1.393-1.5s-.624-1.5-1.393-1.5Z" fill="url('#paint5_linear_401_1805')"/><path d="M33 68.5c0-.31-.08-.6-.22-.839a1.415 1.415 0 0 0-.347-.405 1.155 1.155 0 0 0-.719-.256h-9.428c-.355 0-.677.168-.91.44A1.63 1.63 0 0 0 21 68.5c0 .829.576 1.5 1.286 1.5h9.428c.355 0 .676-.168.91-.44A1.63 1.63 0 0 0 33 68.5Z" fill="url('#paint6_linear_401_1805')"/><path d="m85.376 47.633 7.216-6.495a1.166 1.166 0 0 0 0-1.771 1.503 1.503 0 0 0-1.968 0l-7.216 6.495a1.166 1.166 0 0 0 0 1.771c.543.49 1.424.49 1.968 0Z" fill="url('#paint7_linear_401_1805')"/><path d="M41.633 89.408a1.166 1.166 0 0 0-1.772 0l-6.495 7.216c-.422.469-.478 1.188-.172 1.726a1.4 1.4 0 0 0 .136.193c.013.016.022.034.036.05.238.264.55.398.862.404.008 0 .016.003.023.003.32 0 .641-.136.886-.408l6.496-7.216c.184-.204.298-.455.344-.718.015-.088.023-.177.023-.266 0-.357-.122-.713-.367-.984Z" fill="url('#paint8_linear_401_1805')"/><path d="m92.597 96.626-7.22-7.222c-.17-.17-.374-.28-.59-.344a1.383 1.383 0 0 0-1.38.344 1.392 1.392 0 0 0 .001 1.97l7.22 7.22c.081.082.172.148.267.205a1.38 1.38 0 0 0 2.091-.993 1.387 1.387 0 0 0-.39-1.18Z" fill="url('#paint9_linear_401_1805')"/><path d="M35.138 39.367a1.25 1.25 0 0 0-1.771 0 1.25 1.25 0 0 0 0 1.771l6.495 6.495c.01.011.024.019.036.03.114.106.241.19.378.245a1.253 1.253 0 0 0 1.357-2.046l-6.495-6.495Z" fill="url('#paint10_linear_401_1805')"/><path d="M110 91.393a50.683 50.683 0 0 1-2.181 4.162A53.174 53.174 0 0 1 95.491 110L58.663 72.794a5.776 5.776 0 0 1 .301-8.393 5.605 5.605 0 0 1 7.415 0 4.717 4.717 0 0 1 .583.594h.003l.203.01c.125.01.262.016.41.026.773.05 1.83.132 3.059.245.367.033.75.07 1.146.11.285.029.577.056.875.089l.77.08c.19.019.382.042.576.062.308.033.615.07.927.106 1.48.173 3.013.368 4.477.587.2.03.4.06.596.093.03.003.062.006.091.013.23.037.456.073.679.106.222.04.442.076.658.113l.432.076c.22.04.44.08.655.123l.321.06.646.132.19.04c.085.02.17.04.252.056.04.007.079.017.118.026.121.03.242.057.357.083.082.02.16.04.236.056.304.08.59.156.858.232.062.02.124.04.183.057.05.013.095.03.141.043.069.023.134.046.2.066.023.007.046.013.069.023.13.047.252.09.367.136.01.003.02.01.032.013l.184.077c.14.063.265.122.377.185l.134.083c.137.09.242.179.311.268a.35.35 0 0 1 .053.073c.003.007.006.01.006.013.017.03.03.06.036.093.01.03.013.06.013.09L110 91.392Z" fill="url('#paint11_linear_401_1805')"/><path d="M66.73 73C64.67 73 63 71.209 63 69s1.67-4 3.73-4S88 66.791 88 69c0 2.21-19.21 4-21.27 4Z" fill="url('#paint12_linear_401_1805')"/><path d="M67 65.225C67 67.31 65.209 69 63 69s-4-1.69-4-3.775S60.791 33 63 33s4 30.14 4 32.225Z" fill="url('#paint13_linear_401_1805')"/><path d="M62.5 74a5.5 5.5 0 1 0 0-11 5.5 5.5 0 0 0 0 11Z" fill="#fff"/><path d="M131.566 59.739h-6.324C120.85 29.393 94.589 6 62.946 6 28.237 6 0 34.143 0 68.736c0 14.273 4.94 28.244 13.91 39.337 8.834 10.927 21.215 18.669 34.86 21.8a4.947 4.947 0 0 0 5.932-3.699 4.931 4.931 0 0 0-3.711-5.913c-11.494-2.638-21.926-9.164-29.375-18.376-7.667-9.482-11.72-20.944-11.72-33.149 0-29.154 23.798-52.872 53.05-52.872 26.175 0 47.979 18.992 52.277 43.875h-5.22c-3.942 0-5.916 4.75-3.129 7.528l10.782 10.746a4.436 4.436 0 0 0 6.258 0l10.781-10.746c2.788-2.778.813-7.528-3.129-7.528Z" fill="url('#paint14_linear_401_1805')"/><defs><linearGradient id="paint0_linear_401_1805" x1="64.822" y1="70.826" x2="133.415" y2="139.418" gradientUnits="userSpaceOnUse"><stop stop-color="#fff"/><stop offset="1" stop-color="#C3C3C3"/></linearGradient><linearGradient id="paint1_linear_401_1805" x1="83.939" y1="70.347" x2="27.697" y2="64.097" gradientUnits="userSpaceOnUse"><stop stop-color="#C3C3C3" stop-opacity="0"/><stop offset=".267" stop-color="#A4A4A4" stop-opacity=".267"/><stop offset=".542" stop-color="#8B8B8B" stop-opacity=".542"/><stop offset=".794" stop-color="#7C7C7C" stop-opacity=".794"/><stop offset="1" stop-color="#777"/></linearGradient><linearGradient id="paint2_linear_401_1805" x1="62.999" y1="67.533" x2="62.999" y2="76.487" gradientUnits="userSpaceOnUse"><stop stop-color="#F18D00"/><stop offset="1" stop-color="#ED7103"/></linearGradient><linearGradient id="paint3_linear_401_1805" x1="59.952" y1="32.373" x2="63.775" y2="38.423" gradientUnits="userSpaceOnUse"><stop stop-color="#FF7A7A"/><stop offset="1" stop-color="#F75900"/></linearGradient><linearGradient id="paint4_linear_401_1805" x1="59.952" y1="103.821" x2="64.227" y2="110.065" gradientUnits="userSpaceOnUse"><stop stop-color="#FF7A7A"/><stop offset="1" stop-color="#F75900"/></linearGradient><linearGradient id="paint5_linear_401_1805" x1="87.459" y1="68.343" x2="87.536" y2="70.457" gradientUnits="userSpaceOnUse"><stop stop-color="#FF7A7A"/><stop offset="1" stop-color="#F75900"/></linearGradient><linearGradient id="paint6_linear_401_1805" x1="16.808" y1="68.343" x2="16.891" y2="70.457" gradientUnits="userSpaceOnUse"><stop stop-color="#FF7A7A"/><stop offset="1" stop-color="#F75900"/></linearGradient><linearGradient id="paint7_linear_401_1805" x1="79.507" y1="43.03" x2="80.391" y2="49.253" gradientUnits="userSpaceOnUse"><stop stop-color="#FF7A7A"/><stop offset="1" stop-color="#F75900"/></linearGradient><linearGradient id="paint8_linear_401_1805" x1="29.856" y1="93.477" x2="31.057" y2="100.322" gradientUnits="userSpaceOnUse"><stop stop-color="#FF7A7A"/><stop offset="1" stop-color="#F75900"/></linearGradient><linearGradient id="paint9_linear_401_1805" x1="79.507" y1="93.477" x2="80.594" y2="100.361" gradientUnits="userSpaceOnUse"><stop stop-color="#FF7A7A"/><stop offset="1" stop-color="#F75900"/></linearGradient><linearGradient id="paint10_linear_401_1805" x1="29.856" y1="43.03" x2="30.835" y2="49.225" gradientUnits="userSpaceOnUse"><stop stop-color="#FF7A7A"/><stop offset="1" stop-color="#F75900"/></linearGradient><linearGradient id="paint11_linear_401_1805" x1="83.335" y1="80.995" x2="60.179" y2="55.85" gradientUnits="userSpaceOnUse"><stop stop-color="#C3C3C3" stop-opacity="0"/><stop offset=".267" stop-color="#A4A4A4" stop-opacity=".267"/><stop offset=".542" stop-color="#8B8B8B" stop-opacity=".542"/><stop offset=".794" stop-color="#7C7C7C" stop-opacity=".794"/><stop offset="1" stop-color="#777"/></linearGradient><linearGradient id="paint12_linear_401_1805" x1="80.982" y1="67.548" x2=".36" y2="74.987" gradientUnits="userSpaceOnUse"><stop stop-color="#FFB92D"/><stop offset="1" stop-color="#F59500"/></linearGradient><linearGradient id="paint13_linear_401_1805" x1="71.049" y1="84.357" x2="78.716" y2="115.003" gradientUnits="userSpaceOnUse"><stop stop-color="#FFB92D"/><stop offset="1" stop-color="#F59500"/></linearGradient><linearGradient id="paint14_linear_401_1805" x1="11.769" y1="20.183" x2="110.743" y2="117.049" gradientUnits="userSpaceOnUse"><stop stop-color="#FFCD61"/><stop offset="1" stop-color="#FFAE00"/></linearGradient></defs></svg>