<svg width="136" height="136" fill="none" xmlns="http://www.w3.org/2000/svg"><g clip-path="url('#clip0_401_1783')"><path d="M131.601 74.266 79.79 18.148a12.226 12.226 0 0 0-11.431-3.681l-6.15 1.26-22.657 4.64-.44.088a10.99 10.99 0 0 0-1.003.254 12.167 12.167 0 0 0-6.048 4.043 12.205 12.205 0 0 0-2.221 4.24l-8.453 28.853a12.222 12.222 0 0 0 2.748 11.726l51.791 56.096a13.982 13.982 0 0 0 9.809 4.499c2.94.107 5.914-.708 8.452-2.463.54-.373 1.062-.789 1.562-1.247l4.621-4.268 30.438-28.102c5.693-5.255 6.047-14.13.793-19.82Zm-79.13-23.344a11.335 11.335 0 0 1-.527.797 8.367 8.367 0 0 1-.811.928c-.071.078-.148.15-.223.214a8.139 8.139 0 0 1-9.561 1.042 8.136 8.136 0 0 1-2.98-11.123 8.133 8.133 0 0 1 10.815-3.148c.1.058.202.108.307.168 3.893 2.248 5.226 7.222 2.98 11.122Z" fill="#E8E8E8"/><path d="M75.926 125.667a13.982 13.982 0 0 0 9.81 4.499c2.94.107 5.913-.708 8.45-2.463a14.51 14.51 0 0 0 1.563-1.247l4.621-4.268 30.438-28.102c5.693-5.255 6.047-14.13.793-19.82L107.397 48.05 77.405 30.734a12.225 12.225 0 0 0-3.667-1.773l-6.032-1.746-22.645-6.553a12.201 12.201 0 0 0-5.611-.275l-.307.062c-.094.02-.188.043-.282.065-.12.027-.24.053-.357.084-.211.056-.42.122-.628.19a12.206 12.206 0 0 0-4.994 3.117l-.825.852a12.21 12.21 0 0 0-2.217 4.235l-8.453 28.853a12.223 12.223 0 0 0 2.747 11.726l51.792 56.096ZM38.368 42.78a8.133 8.133 0 0 1 10.816-3.148c.1.058.202.108.306.168 3.894 2.248 5.227 7.222 2.98 11.122a11.335 11.335 0 0 1-.526.797 8.35 8.35 0 0 1-.811.928c-.071.078-.148.15-.223.214a8.139 8.139 0 0 1-9.561 1.042 8.137 8.137 0 0 1-2.98-11.123Z" fill="url('#paint0_linear_401_1783')"/><path d="m80.048 34.519-5.375-3.248-20.176-12.19a12.222 12.222 0 0 0-12.604-.02L16.11 34.526a12.216 12.216 0 0 0-5.935 10.477v76.35c0 7.746 6.28 14.025 14.029 14.025h47.718c7.746 0 14.025-6.279 14.025-14.025V44.976c0-4.282-2.239-8.242-5.899-10.457ZM42.306 50.226a8.14 8.14 0 0 1 0-11.514 8.138 8.138 0 0 1 11.262-.24c.084.08.168.156.252.24a8.141 8.141 0 0 1-2.006 12.984 8.14 8.14 0 0 1-9.508-1.47Z" fill="#FDC347"/><path d="M85.947 121.354v-.96L38.9 73.358c-1.825-1.46-4.242-2.19-7.251-2.19-6.61 0-9.915 3.044-9.915 9.134v10.99c0 3.297.978 5.694 2.915 7.206L61.53 135.38h10.391c7.746-.001 14.025-6.28 14.025-14.026Z" fill="url('#paint1_linear_401_1783')"/><path d="M63.65 69.088c-.65-.544-1.372-.817-2.17-.817-1.087 0-1.827.445-2.222 1.337l-27.164 54.566a2.219 2.219 0 0 0-.295 1.114c0 .693.273 1.324.822 1.894l8.198 8.197h31.103c7.746 0 14.025-6.279 14.025-14.025V91.495L63.649 69.088Z" fill="url('#paint2_linear_401_1783')"/><path d="M71.65 98.385c-1.825-1.46-4.242-2.19-7.25-2.19-6.61 0-9.915 3.044-9.915 9.134v10.991c0 3.296.977 5.693 2.914 7.205l11.855 11.854h2.668c7.745 0 14.025-6.279 14.025-14.025v-8.676L71.65 98.385Z" fill="url('#paint3_linear_401_1783')"/><path d="M21.734 91.293V80.302c0-6.09 3.305-9.135 9.915-9.135 3.009 0 5.426.731 7.25 2.19 1.825 1.462 2.738 3.777 2.738 6.944v10.991c0 3.17-.913 5.484-2.737 6.944-1.825 1.461-4.242 2.191-7.251 2.191-6.61 0-9.915-3.045-9.915-9.134Zm5.273-.124c0 2.855 1.547 4.282 4.642 4.282 3.143 0 4.715-1.427 4.715-4.282V80.426c0-2.855-1.572-4.283-4.715-4.283-3.095 0-4.642 1.428-4.642 4.283v10.743Zm4.792 34.119c0-.396.098-.767.295-1.114L59.26 69.607c.394-.89 1.135-1.336 2.22-1.336.799 0 1.522.272 2.17.817.65.545.974 1.213.974 2.005 0 .397-.074.792-.222 1.188l-27.166 54.344c-.445.94-1.284 1.411-2.517 1.411-.85 0-1.548-.286-2.097-.854-.549-.57-.822-1.201-.822-1.894Zm22.686-8.815v-11.075c0-6.136 3.305-9.204 9.915-9.204 3.008 0 5.425.737 7.25 2.208 1.825 1.472 2.738 3.804 2.738 6.996v11.075c0 3.193-.913 5.525-2.737 6.997-1.826 1.471-4.243 2.207-7.251 2.207-6.61 0-9.915-3.068-9.915-9.204Zm5.273-.103c0 2.887 1.547 4.331 4.641 4.331 3.144 0 4.716-1.443 4.716-4.331v-10.869c0-2.887-1.572-4.332-4.716-4.332-3.095 0-4.641 1.445-4.641 4.332v10.869Z" fill="url('#paint4_linear_401_1783')"/><path d="M85.947 44.975v25.963L54.483 39.474a8.279 8.279 0 0 0-.661-.761c-.086-.086-.171-.16-.253-.242a2.222 2.222 0 0 0-.174-.15 8.13 8.13 0 0 0-10.668.004V18.603a12.223 12.223 0 0 1 11.77.477l20.178 12.19 5.373 3.25a12.215 12.215 0 0 1 5.899 10.455Z" fill="url('#paint5_linear_401_1783')"/><path d="M48.06 48.019a5.334 5.334 0 0 1-5.333-5.334V5.334a5.334 5.334 0 0 1 10.668 0v37.35a5.334 5.334 0 0 1-5.334 5.335Z" fill="url('#paint6_linear_401_1783')"/></g><defs><linearGradient id="paint0_linear_401_1783" x1="62.502" y1="14.168" x2="122.935" y2="103.535" gradientUnits="userSpaceOnUse"><stop stop-color="#fff"/><stop offset="1" stop-color="#fff" stop-opacity="0"/></linearGradient><linearGradient id="paint1_linear_401_1783" x1="50.295" y1="104.481" x2="28.05" y2="82.236" gradientUnits="userSpaceOnUse"><stop stop-color="#FDC347" stop-opacity="0"/><stop offset="1" stop-color="#F59500"/></linearGradient><linearGradient id="paint2_linear_401_1783" x1="73.913" y1="123.915" x2="39.666" y2="89.668" gradientUnits="userSpaceOnUse"><stop stop-color="#FDC347" stop-opacity="0"/><stop offset="1" stop-color="#F59500"/></linearGradient><linearGradient id="paint3_linear_401_1783" x1="89.497" y1="135.965" x2="55.599" y2="102.065" gradientUnits="userSpaceOnUse"><stop stop-color="#FDC347" stop-opacity="0"/><stop offset="1" stop-color="#F59500"/></linearGradient><linearGradient id="paint4_linear_401_1783" x1="48.06" y1="82.215" x2="48.06" y2="148.936" gradientUnits="userSpaceOnUse"><stop stop-color="#fff"/><stop offset="1" stop-color="#E2EDF2"/></linearGradient><linearGradient id="paint5_linear_401_1783" x1="82.626" y1="51.913" x2="28.275" y2="21.652" gradientUnits="userSpaceOnUse"><stop stop-color="#FDC347"/><stop offset="1" stop-color="#F59500"/></linearGradient><linearGradient id="paint6_linear_401_1783" x1="39" y1="21.5" x2="55" y2="44" gradientUnits="userSpaceOnUse"><stop stop-color="#FF7A7A"/><stop offset="1" stop-color="#F75900"/></linearGradient><clipPath id="clip0_401_1783"><path fill="#fff" d="M0 0h136v136H0z"/></clipPath></defs></svg>