<svg width="137" height="136" fill="none" xmlns="http://www.w3.org/2000/svg"><g clip-path="url('#clip0_401_1796')"><path d="M15.364 88.177 1.51 121.797C-.615 126.954.836 136 3.788 136h129.424c2.96 0 4.407-9.086 2.266-14.231l-13.995-33.642c-1.102-2.65-2.568-4.127-4.092-4.127H19.476c-1.534 0-3.008 1.497-4.112 4.177Z" fill="url('#paint0_linear_401_1796')"/><path d="m80.25 93.577-.011-.008H56.797a301.847 301.847 0 0 0 6.501 7.049l16.952 15.924h23.979l-23.98-22.965Z" fill="url('#paint1_linear_401_1796')"/><path d="M68.518 0C45.351 0 26.57 18.799 26.57 41.987c0 18.078 25.49 46.83 36.728 58.631a7.204 7.204 0 0 0 10.44 0c11.24-11.8 36.732-40.553 36.732-58.63C110.469 18.797 91.688 0 68.518 0Zm0 57.96c-8.813 0-15.957-7.152-15.957-15.973 0-8.82 7.145-15.971 15.957-15.971 8.813 0 15.957 7.15 15.957 15.971S77.331 57.96 68.518 57.96Z" fill="url('#paint2_linear_401_1796')"/><circle cx="68.5" cy="42.396" r="25" fill="#fff"/><path d="M68.518 17c-14.006 0-25.36 11.365-25.36 25.383 0 14.02 11.354 25.384 25.36 25.384 14.005 0 25.36-11.365 25.36-25.384C93.878 28.365 82.523 17 68.518 17Zm0 41.355c-8.813 0-15.957-7.15-15.957-15.972 0-8.82 7.144-15.971 15.957-15.971 8.812 0 15.957 7.15 15.957 15.971S77.33 58.355 68.518 58.355Z" fill="url('#paint3_linear_401_1796')"/></g><defs><linearGradient id="paint0_linear_401_1796" x1="68.5" y1="84" x2="68.5" y2="136" gradientUnits="userSpaceOnUse"><stop stop-color="#fff"/><stop offset=".719" stop-color="#F0F0F0"/><stop offset="1" stop-color="#E0E0E0"/></linearGradient><linearGradient id="paint1_linear_401_1796" x1="91.915" y1="116.221" x2="72.977" y2="100.828" gradientUnits="userSpaceOnUse"><stop stop-color="#FEFEFE" stop-opacity="0"/><stop offset="1" stop-color="#D7D7D7"/></linearGradient><linearGradient id="paint2_linear_401_1796" x1="53.978" y1="29.675" x2="95.991" y2="71.648" gradientUnits="userSpaceOnUse"><stop stop-color="#FFC851"/><stop offset="1" stop-color="#FFAE00"/></linearGradient><linearGradient id="paint3_linear_401_1796" x1="77.972" y1="32.92" x2="50.545" y2="60.324" gradientUnits="userSpaceOnUse"><stop stop-color="#FFCB5B"/><stop offset="1" stop-color="#FAAE0B"/></linearGradient><clipPath id="clip0_401_1796"><path fill="#fff" transform="translate(.5)" d="M0 0h136v136H0z"/></clipPath></defs></svg>