<svg width="28" height="30" fill="none" xmlns="http://www.w3.org/2000/svg"><mask id="a" style="mask-type:alpha" maskUnits="userSpaceOnUse" x="0" y="0" width="28" height="30"><path d="M8.894 26.365a3.624 3.624 0 1 1-7.247 0 3.624 3.624 0 0 1 7.247 0Zm17.459 0a3.624 3.624 0 1 1-7.247 0 3.624 3.624 0 0 1 7.247 0Z" fill="#C4C4C4"/><path fill-rule="evenodd" clip-rule="evenodd" d="M25.191 23.706c.247.229.218.615-.04.83a7.874 7.874 0 0 1-5.057 1.829h-.33c-.363 0-.664-.298-.599-.656a3.625 3.625 0 0 1 6.026-2.003Zm1.908-1.578c-.2.381-.715.415-1.049.144a5.272 5.272 0 0 0-8.55 3.436c-.045.36-.336.657-.7.657h-5.6c-.364 0-.654-.297-.7-.658a5.272 5.272 0 0 0-8.55-3.435c-.334.271-.849.237-1.049-.144A7.871 7.871 0 0 1 0 18.458v-1.646a.66.66 0 0 1 .659-.66H27.34a.66.66 0 0 1 .659.66v1.647a7.872 7.872 0 0 1-.901 3.67ZM28 13.847a.659.659 0 0 1-.659.659H.66a.659.659 0 0 1-.659-.66V9.895c0-.364.295-.659.659-.659h26.68c.364 0 .659.295.659.659v3.953ZM7.906.012A7.907 7.907 0 0 0 .064 6.904c-.047.371.255.684.63.684h26.613c.374 0 .676-.313.629-.684A7.907 7.907 0 0 0 20.094.012H7.906ZM5.27 22.742a3.625 3.625 0 0 1 3.564 2.967c.065.358-.236.656-.6.656h-.33a7.874 7.874 0 0 1-5.056-1.829c-.258-.215-.287-.602-.04-.83a3.61 3.61 0 0 1 2.462-.965Z" fill="#C4C4C4"/></mask><g mask="url('#a')"><path fill="url('#b')" d="M-1.647-2.294h33.6V8.577h-33.6z"/><path fill="#FFA833" d="M-1.647 15.494h33.6v16.471h-33.6z"/><rect x="-1.647" y="8.577" width="33.6" height="7.247" rx="3.624" fill="#F17228"/><path fill="#F58D00" d="M-23.059 22.741H8.894v7.247h-31.953zm42.165 0h31.953v7.247H19.106z"/><ellipse cx="8.112" cy="2.823" rx="1" ry=".5" transform="rotate(-20.855 8.112 2.823)" fill="#fff"/><ellipse cx="14" cy="2.5" rx="1" ry=".5" fill="#fff"/><ellipse cx="19.118" cy="2.912" rx="1" ry=".5" transform="rotate(28.116 19.118 2.912)" fill="#fff"/></g><defs><linearGradient id="b" x1="15" y1="-.5" x2="15" y2="17" gradientUnits="userSpaceOnUse"><stop stop-color="#FFD16D"/><stop offset="1" stop-color="#FF7A00"/></linearGradient></defs></svg>