<svg width="0" height="0" class="hidden"><symbol fill="none" xmlns="http://www.w3.org/2000/svg" viewBox="0 0 28 33" id="apple"><path d="M22.654 17.451a7.483 7.483 0 0 1 3.534-6.228 7.692 7.692 0 0 0-5.986-3.236c-2.52-.265-4.961 1.507-6.245 1.507-1.308 0-3.284-1.481-5.413-1.437a8.038 8.038 0 0 0-6.709 4.091c-2.9 5.023-.737 12.405 2.042 16.465 1.39 1.988 3.015 4.208 5.141 4.13 2.08-.087 2.858-1.327 5.37-1.327 2.488 0 3.217 1.326 5.386 1.277 2.232-.037 3.64-1.997 4.98-4.004a16.44 16.44 0 0 0 2.278-4.639c-2.623-1.11-4.375-3.75-4.378-6.599ZM18.556 5.317A7.309 7.309 0 0 0 20.228.08a7.436 7.436 0 0 0-4.812 2.49 7.018 7.018 0 0 0-1.715 5.041 6.22 6.22 0 0 0 4.855-2.295Z" fill="#F17228"/></symbol><symbol xmlns="http://www.w3.org/2000/svg" viewBox="0 0 24 15" id="delivery"><path d="M19 5c2.46.035 4.465 2.04 4.5 4.465 0 2.531-2.04 4.57-4.57 4.535-2.426 0-4.43-2.004-4.43-4.465-.035-1.37.598-2.601 1.547-3.445l-.422-.738a5.334 5.334 0 0 0-1.969 4.394c0 .492-.386.879-.844.879H9.86C9.332 12.594 7.574 14 5.5 14 2.969 14 .93 11.96 1 9.395c.035-2.356 1.934-4.29 4.324-4.36.492-.035.985.035 1.442.176l.386-.738c-.316-.493-.808-.88-1.652-.88H3.531c-.492 0-.844-.35-.844-.808-.035-.492.387-.879.844-.879H5.5c1.934 0 2.883.598 3.48 1.407h5.415l-.668-1.126h-2.32a.555.555 0 0 1-.563-.562v-.563c0-.28.246-.562.562-.562h2.813c.281 0 .562.176.703.422l.808 1.336L17.031.78A.88.88 0 0 1 17.664.5h1.617c.457 0 .844.387.844.844v1.125a.833.833 0 0 1-.844.844h-2.918l1.16 1.933C17.98 5.106 18.508 5 19 5ZM5.5 12.313c1.125 0 2.11-.668 2.566-1.688H5.22c-.668 0-1.055-.668-.739-1.23l1.442-2.672c-.14 0-.281-.035-.422-.035A2.798 2.798 0 0 0 2.687 9.5 2.777 2.777 0 0 0 5.5 12.313Zm16.277-2.637c.106-1.617-1.195-2.989-2.777-2.953-.21 0-.387 0-.563.035l1.688 2.847a.556.556 0 0 1-.176.774l-.492.281c-.281.176-.598.07-.773-.176L16.96 7.566a2.801 2.801 0 0 0-.773 1.934c0 1.617 1.335 2.918 2.953 2.813a2.807 2.807 0 0 0 2.636-2.637Z"/></symbol><symbol fill="none" xmlns="http://www.w3.org/2000/svg" viewBox="0 0 19 19" id="discount"><path d="M0 9.145V1.938C0 1.022.738.25 1.688.25h7.171c.457 0 .88.21 1.196.527l7.418 7.418c.668.668.668 1.758 0 2.39L10.3 17.759c-.633.668-1.723.668-2.39 0L.491 10.34A1.674 1.674 0 0 1 0 9.145ZM3.938 2.5c-.95 0-1.688.773-1.688 1.688 0 .949.738 1.687 1.688 1.687.914 0 1.687-.738 1.687-1.688 0-.914-.773-1.687-1.688-1.687Z" fill="#fff"/></symbol><symbol fill="none" xmlns="http://www.w3.org/2000/svg" viewBox="0 0 24 19" id="email"><path d="M23.531 6.453c.188-.14.469 0 .469.234v9.563a2.25 2.25 0 0 1-2.25 2.25H2.25A2.221 2.221 0 0 1 0 16.25V6.687c0-.234.234-.375.422-.234 1.078.844 2.437 1.875 7.219 5.344.984.703 2.671 2.25 4.359 2.25 1.64 0 3.375-1.547 4.313-2.25 4.78-3.469 6.14-4.5 7.218-5.344ZM12 12.5c-1.125.047-2.672-1.36-3.469-1.922-6.234-4.5-6.703-4.922-8.11-6.047C.142 4.344 0 4.016 0 3.641V2.75A2.25 2.25 0 0 1 2.25.5h19.5C22.969.5 24 1.531 24 2.75v.89c0 .376-.188.704-.469.891-1.406 1.125-1.875 1.547-8.11 6.047-.796.563-2.343 1.969-3.421 1.922Z" fill="#ADADAD"/></symbol><symbol xmlns="http://www.w3.org/2000/svg" viewBox="0 0 24 24" id="fackebook"><path d="M23.625 12C23.625 5.578 18.422.375 12 .375S.375 5.578.375 12c0 5.813 4.219 10.64 9.797 11.484v-8.109H7.219V12h2.953V9.469c0-2.906 1.734-4.547 4.36-4.547 1.312 0 2.624.234 2.624.234v2.86h-1.453c-1.453 0-1.922.89-1.922 1.828V12h3.235l-.516 3.375h-2.719v8.11c5.578-.844 9.844-5.672 9.844-11.485Z"/></symbol><symbol fill="none" xmlns="http://www.w3.org/2000/svg" viewBox="0 0 36 40" id="googleplay"><path fill-rule="evenodd" clip-rule="evenodd" d="M1.353 1.715c-.251.438-.394 1.01-.394 1.7v33.174c0 .69.143 1.262.395 1.7l18.285-18.288L1.353 1.715Zm.691 37.298c.693.422 1.66.381 2.727-.224l21.461-12.195-5.886-5.886L2.044 39.013Zm25.09-12.93 6.889-3.914c2.095-1.192 2.095-3.141 0-4.332l-6.891-3.915L21.053 20l6.082 6.081Zm-.904-12.674L4.771 1.216C3.704.609 2.737.569 2.044.99l18.302 18.303 5.884-5.885Z" fill="#F17228"/></symbol><symbol xmlns="http://www.w3.org/2000/svg" viewBox="0 0 22 22" id="instagram"><path d="M11.5 5.61c-3 0-5.39 2.437-5.39 5.39 0 3 2.39 5.39 5.39 5.39 2.953 0 5.39-2.39 5.39-5.39 0-2.953-2.437-5.39-5.39-5.39Zm0 8.906A3.51 3.51 0 0 1 7.984 11c0-1.922 1.547-3.469 3.516-3.469A3.46 3.46 0 0 1 14.969 11c0 1.969-1.547 3.516-3.469 3.516Zm6.844-9.094a1.26 1.26 0 0 0-1.266-1.266 1.26 1.26 0 0 0-1.265 1.266 1.26 1.26 0 0 0 1.265 1.266 1.26 1.26 0 0 0 1.266-1.266Zm3.562 1.266C21.813 5 21.438 3.5 20.22 2.28 19 1.062 17.5.687 15.812.594 14.079.5 8.875.5 7.142.594 5.453.688 4 1.063 2.734 2.28 1.516 3.5 1.141 5 1.047 6.687c-.094 1.735-.094 6.938 0 8.672.094 1.688.469 3.141 1.687 4.407 1.266 1.218 2.72 1.593 4.407 1.687 1.734.094 6.937.094 8.671 0 1.688-.094 3.188-.469 4.407-1.687 1.218-1.266 1.593-2.72 1.687-4.407.094-1.734.094-6.937 0-8.671Zm-2.25 10.5c-.328.937-1.078 1.64-1.968 2.015-1.407.563-4.688.422-6.188.422-1.547 0-4.828.14-6.188-.422a3.554 3.554 0 0 1-2.015-2.015c-.563-1.36-.422-4.641-.422-6.188 0-1.5-.14-4.781.422-6.188a3.616 3.616 0 0 1 2.015-1.968c1.36-.563 4.641-.422 6.188-.422 1.5 0 4.781-.14 6.188.422.89.328 1.593 1.078 1.968 1.969.563 1.406.422 4.687.422 6.187 0 1.547.14 4.828-.422 6.188Z"/></symbol><symbol xmlns="http://www.w3.org/2000/svg" viewBox="0 0 14 19" id="location"><path d="M6.297 18.398C1.164 11.016.25 10.242.25 7.5A6.73 6.73 0 0 1 7 .75a6.752 6.752 0 0 1 6.75 6.75c0 2.742-.95 3.516-6.082 10.898a.821.821 0 0 1-1.371 0ZM7 10.313A2.798 2.798 0 0 0 9.813 7.5 2.82 2.82 0 0 0 7 4.687 2.798 2.798 0 0 0 4.187 7.5 2.777 2.777 0 0 0 7 10.313Z"/></symbol><symbol xmlns="http://www.w3.org/2000/svg" viewBox="0 0 16 19" id="pickup"><path d="M12.375 5.875h3.375v9.563a2.798 2.798 0 0 1-2.813 2.812H2.813A2.777 2.777 0 0 1 0 15.437V5.876h3.375V4.75c0-2.46 2.004-4.5 4.5-4.5 2.46 0 4.5 2.04 4.5 4.5v1.125ZM5.625 4.75v1.125h4.5V4.75c0-1.23-1.02-2.25-2.25-2.25a2.243 2.243 0 0 0-2.25 2.25Zm5.625 4.219a.833.833 0 0 0 .844-.844.856.856 0 0 0-.844-.844.833.833 0 0 0-.844.844c0 .492.352.844.844.844Zm-6.75 0a.833.833 0 0 0 .844-.844.855.855 0 0 0-.844-.844.833.833 0 0 0-.844.844c0 .492.352.844.844.844Z"/></symbol><symbol xmlns="http://www.w3.org/2000/svg" viewBox="0 0 19 19" id="search"><path d="M17.754 15.824c.316.352.316.88-.035 1.196l-.985.984c-.316.351-.843.351-1.195 0l-3.48-3.48a.823.823 0 0 1-.246-.598v-.598a7.266 7.266 0 0 1-4.5 1.547A7.307 7.307 0 0 1 0 7.562C0 3.556 3.27.25 7.313.25c4.007 0 7.312 3.305 7.312 7.313a7.33 7.33 0 0 1-1.547 4.5h.563c.21 0 .421.105.597.246l3.516 3.515ZM7.312 12.063c2.461 0 4.5-2.004 4.5-4.5 0-2.461-2.039-4.5-4.5-4.5-2.496 0-4.5 2.039-4.5 4.5 0 2.496 2.004 4.5 4.5 4.5Z"/></symbol><symbol fill="none" xmlns="http://www.w3.org/2000/svg" viewBox="0 0 25 24" id="star"><path d="M11.129 1.523c.516-1.03 1.976-.988 2.45 0l2.835 5.715 6.273.903c1.118.171 1.547 1.546.731 2.363l-4.512 4.426 1.075 6.23c.171 1.117-1.032 1.977-2.02 1.461l-5.586-2.965-5.629 2.965c-.988.516-2.191-.344-2.02-1.46l1.075-6.231-4.512-4.426c-.816-.816-.387-2.191.73-2.363l6.317-.903 2.793-5.715Z" fill="#FFB30E"/></symbol><symbol fill="none" xmlns="http://www.w3.org/2000/svg" viewBox="0 0 18 18" id="time"><path d="M9 .531a8.717 8.717 0 0 1 8.719 8.719A8.717 8.717 0 0 1 9 17.969 8.717 8.717 0 0 1 .281 9.25 8.717 8.717 0 0 1 9 .531Zm3.234 11.004c.07-.07.141-.21.141-.351 0-.176-.105-.317-.21-.422l-2.04-1.512V4.187c0-.28-.281-.562-.563-.562H8.438a.578.578 0 0 0-.563.563v5.484c0 .457.176.844.527 1.09l2.356 1.758c.07.07.21.14.316.14.211 0 .352-.105.457-.246l.703-.879Z" fill="#fff"/></symbol><symbol xmlns="http://www.w3.org/2000/svg" viewBox="0 0 24 20" id="twitter"><path d="M21.516 5.125c.937-.703 1.78-1.547 2.437-2.531a9.225 9.225 0 0 1-2.812.75A4.809 4.809 0 0 0 23.297.625c-.938.563-2.016.984-3.094 1.219a4.922 4.922 0 0 0-3.61-1.547 4.921 4.921 0 0 0-4.921 4.922c0 .375.047.75.14 1.125A14.28 14.28 0 0 1 1.642 1.187c-.422.704-.657 1.547-.657 2.485 0 1.687.844 3.187 2.204 4.078-.797-.047-1.594-.234-2.25-.61v.048c0 2.39 1.687 4.359 3.937 4.828-.375.093-.844.187-1.266.187-.328 0-.609-.047-.937-.094.61 1.97 2.437 3.375 4.594 3.422a9.895 9.895 0 0 1-6.094 2.11c-.422 0-.797-.047-1.172-.094 2.156 1.406 4.734 2.203 7.547 2.203 9.047 0 13.969-7.453 13.969-13.969v-.656Z"/></symbol><symbol fill="none" xmlns="http://www.w3.org/2000/svg" viewBox="0 0 16 19" id="user"><path d="M8 9.25a4.486 4.486 0 0 1-4.5-4.5C3.5 2.29 5.504.25 8 .25c2.46 0 4.5 2.04 4.5 4.5 0 2.496-2.04 4.5-4.5 4.5Zm3.129 1.125c2.601 0 4.746 2.145 4.746 4.746v1.441c0 .95-.773 1.688-1.688 1.688H1.813c-.95 0-1.688-.738-1.688-1.688v-1.44c0-2.602 2.11-4.747 4.71-4.747h.599c.773.387 1.652.563 2.566.563.914 0 1.758-.176 2.531-.563h.598Z" fill="url('#paint0_linear_401_1279')"/><defs><linearGradient id="paint0_linear_401_1279" x1="-7.028" y1="-22.35" x2="23.903" y2="-20.985" gradientUnits="userSpaceOnUse"><stop stop-color="#FFB800"/><stop offset="1" stop-color="#FF8A00"/></linearGradient></defs></symbol><symbol xmlns="http://www.w3.org/2000/svg" viewBox="0 0 9 14" id="arrowright"><path d="m8.406 7.531-6.062 6.094c-.313.281-.781.281-1.063 0l-.718-.719c-.282-.281-.282-.75 0-1.062L5.375 7 .562 2.187c-.28-.312-.28-.78 0-1.062l.72-.719c.28-.281.75-.281 1.062 0L8.406 6.5a.736.736 0 0 1 0 1.031Z"/></symbol><symbol fill="none" xmlns="http://www.w3.org/2000/svg" viewBox="0 0 3 96" id="line-vertical"><path fill-rule="evenodd" clip-rule="evenodd" d="M.75 96V0h2v96h-2Z" fill="#CFCFCF"/></symbol><symbol fill="none" xmlns="http://www.w3.org/2000/svg" viewBox="0 0 113 25" id="app-store"><path d="M70.789 2.801v3.437h-2.154v2.254h2.154v7.657c0 2.615 1.183 3.66 4.159 3.66.522 0 1.02-.062 1.456-.136v-2.229c-.373.037-.61.062-1.02.062-1.333 0-1.918-.622-1.918-2.042V8.492h2.938V6.238h-2.938V2.8h-2.677ZM83.985 19.997c3.96 0 6.388-2.653 6.388-7.048 0-4.37-2.441-7.035-6.388-7.035-3.96 0-6.4 2.665-6.4 7.035 0 4.395 2.428 7.048 6.4 7.048Zm0-2.379c-2.328 0-3.636-1.705-3.636-4.669 0-2.938 1.308-4.657 3.636-4.657 2.316 0 3.636 1.719 3.636 4.657 0 2.951-1.32 4.67-3.636 4.67ZM92.45 19.735h2.677v-8.006c0-1.905 1.432-3.188 3.461-3.188.473 0 1.27.088 1.494.162v-2.64c-.286-.074-.796-.111-1.195-.111-1.768 0-3.275.97-3.66 2.303h-.2v-2.08H92.45v13.56ZM106.729 8.193c1.98 0 3.275 1.382 3.337 3.511h-6.848c.149-2.117 1.532-3.511 3.511-3.511Zm3.325 7.881c-.498 1.059-1.606 1.644-3.225 1.644-2.142 0-3.524-1.507-3.611-3.885v-.15h9.575v-.933c0-4.258-2.279-6.836-6.051-6.836-3.823 0-6.251 2.752-6.251 7.085s2.378 6.998 6.263 6.998c3.101 0 5.267-1.495 5.877-3.923h-2.577ZM53.233 14.728c.207 3.33 2.982 5.459 7.111 5.459 4.414 0 7.175-2.233 7.175-5.795 0-2.8-1.574-4.349-5.394-5.24l-2.052-.503c-2.426-.567-3.407-1.329-3.407-2.658 0-1.678 1.523-2.775 3.807-2.775 2.168 0 3.665 1.071 3.936 2.788h2.814C67.055 2.868 64.293.66 60.512.66c-4.065 0-6.775 2.207-6.775 5.523 0 2.736 1.535 4.362 4.904 5.15l2.4.58c2.465.581 3.549 1.433 3.549 2.853 0 1.651-1.704 2.852-4.026 2.852-2.491 0-4.22-1.123-4.466-2.891h-2.865ZM25.502 5.952c-1.842 0-3.436.92-4.258 2.465h-.2V6.176h-2.576v18.066h2.677v-6.561h.211c.71 1.431 2.241 2.278 4.171 2.278 3.424 0 5.603-2.702 5.603-7.01s-2.179-6.997-5.628-6.997Zm-.76 11.604c-2.24 0-3.647-1.768-3.647-4.594 0-2.84 1.407-4.607 3.66-4.607 2.266 0 3.624 1.73 3.624 4.594 0 2.876-1.358 4.607-3.636 4.607ZM40.498 5.952c-1.843 0-3.437.92-4.259 2.465h-.199V6.176h-2.577v18.066h2.677v-6.561h.211c.71 1.431 2.242 2.278 4.172 2.278 3.424 0 5.602-2.702 5.602-7.01s-2.178-6.997-5.627-6.997Zm-.76 11.604c-2.241 0-3.648-1.768-3.648-4.594 0-2.84 1.407-4.607 3.66-4.607 2.267 0 3.624 1.73 3.624 4.594 0 2.876-1.357 4.607-3.636 4.607ZM13.665 19.735h3.07L10.013 1.113h-3.11L.178 19.735h2.969l1.716-4.943h7.098l1.704 4.943ZM8.309 4.494h.22l2.696 7.872H5.6l2.71-7.872Z" fill="#212121"/></symbol><symbol fill="none" xmlns="http://www.w3.org/2000/svg" viewBox="0 0 60 10" id="get-it-on"><path d="M10.127 5.364c0 1.257-.372 2.258-1.117 3.005C8.164 9.257 7.06 9.7 5.704 9.7c-1.3 0-2.405-.45-3.312-1.35-.91-.902-1.364-2.018-1.364-3.35 0-1.333.455-2.45 1.364-3.35.907-.9 2.013-1.35 3.312-1.35.645 0 1.261.125 1.846.376.587.252 1.056.586 1.407 1.005l-.79.792C7.57 1.76 6.75 1.406 5.702 1.406c-.948 0-1.767.333-2.458.999C2.552 3.07 2.207 3.936 2.207 5c0 1.063.345 1.929 1.037 2.595.691.666 1.51.999 2.458.999 1.005 0 1.844-.335 2.514-1.005.435-.437.687-1.044.755-1.823H5.702V4.685h4.36c.046.235.065.462.065.68ZM17.042 1.605h-4.098v2.853h3.696V5.54h-3.696v2.853h4.098V9.5h-5.254v-9h5.254v1.105ZM21.919 9.5h-1.157V1.606h-2.514V.5h6.184v1.105H21.92V9.5ZM28.907 9.5v-9h1.157v9h-1.157ZM35.192 9.5h-1.156V1.606h-2.514V.5h6.184v1.105h-2.514V9.5ZM49.413 8.337c-.885.91-1.984 1.364-3.3 1.364-1.315 0-2.415-.455-3.298-1.364-.885-.909-1.326-2.022-1.326-3.337 0-1.316.44-2.429 1.326-3.338.883-.909 1.983-1.365 3.298-1.365 1.308 0 2.406.458 3.294 1.371.888.914 1.332 2.024 1.332 3.332 0 1.315-.442 2.428-1.326 3.337Zm-5.745-.754c.666.675 1.48 1.011 2.445 1.011.965 0 1.78-.338 2.445-1.011.666-.675 1-1.536 1-2.583 0-1.047-.334-1.908-1-2.583-.664-.675-1.48-1.011-2.445-1.011-.964 0-1.779.337-2.445 1.011-.664.675-.999 1.536-.999 2.583 0 1.047.335 1.908 1 2.583ZM52.362 9.5v-9h1.407l4.374 7h.05l-.05-1.734V.5H59.3v9h-1.208l-4.576-7.341h-.05l.05 1.734V9.5h-1.154Z" fill="#616161"/><path d="M10.127 5.364c0 1.257-.372 2.258-1.117 3.005C8.164 9.257 7.06 9.7 5.704 9.7c-1.3 0-2.405-.45-3.312-1.35-.91-.902-1.364-2.018-1.364-3.35 0-1.333.455-2.45 1.364-3.35.907-.9 2.013-1.35 3.312-1.35.645 0 1.261.125 1.846.376.587.252 1.056.586 1.407 1.005l-.79.792C7.57 1.76 6.75 1.406 5.702 1.406c-.948 0-1.767.333-2.458.999C2.552 3.07 2.207 3.936 2.207 5c0 1.063.345 1.929 1.037 2.595.691.666 1.51.999 2.458.999 1.005 0 1.844-.335 2.514-1.005.435-.437.687-1.044.755-1.823H5.702V4.685h4.36c.046.235.065.462.065.68ZM17.042 1.605h-4.098v2.853h3.696V5.54h-3.696v2.853h4.098V9.5h-5.254v-9h5.254v1.105ZM21.919 9.5h-1.157V1.606h-2.514V.5h6.184v1.105H21.92V9.5ZM28.907 9.5v-9h1.157v9h-1.157ZM35.192 9.5h-1.156V1.606h-2.514V.5h6.184v1.105h-2.514V9.5ZM49.413 8.337c-.885.91-1.984 1.364-3.3 1.364-1.315 0-2.415-.455-3.298-1.364-.885-.909-1.326-2.022-1.326-3.337 0-1.316.44-2.429 1.326-3.338.883-.909 1.983-1.365 3.298-1.365 1.308 0 2.406.458 3.294 1.371.888.914 1.332 2.024 1.332 3.332 0 1.315-.442 2.428-1.326 3.337Zm-5.745-.754c.666.675 1.48 1.011 2.445 1.011.965 0 1.78-.338 2.445-1.011.666-.675 1-1.536 1-2.583 0-1.047-.334-1.908-1-2.583-.664-.675-1.48-1.011-2.445-1.011-.964 0-1.779.337-2.445 1.011-.664.675-.999 1.536-.999 2.583 0 1.047.335 1.908 1 2.583ZM52.362 9.5v-9h1.407l4.374 7h.05l-.05-1.734V.5H59.3v9h-1.208l-4.576-7.341h-.05l.05 1.734V9.5h-1.154Z" stroke="#212121" stroke-width=".2" stroke-miterlimit="10"/></symbol><symbol fill="none" xmlns="http://www.w3.org/2000/svg" viewBox="0 0 128 27" id="google-play"><path d="M41.204 7.627c-3.528 0-6.404 2.683-6.404 6.38 0 3.673 2.876 6.379 6.404 6.379 3.53 0 6.405-2.706 6.405-6.38-.002-3.696-2.877-6.38-6.405-6.38Zm0 10.248c-1.934 0-3.6-1.595-3.6-3.867 0-2.297 1.668-3.867 3.6-3.867 1.934 0 3.6 1.57 3.6 3.867 0 2.27-1.666 3.867-3.6 3.867ZM27.233 7.627c-3.528 0-6.404 2.683-6.404 6.38 0 3.673 2.876 6.379 6.404 6.379 3.53 0 6.405-2.706 6.405-6.38 0-3.696-2.875-6.38-6.405-6.38Zm0 10.248c-1.934 0-3.6-1.595-3.6-3.867 0-2.297 1.668-3.867 3.6-3.867 1.933 0 3.6 1.57 3.6 3.867.002 2.27-1.666 3.867-3.6 3.867Zm-16.617-8.29v2.707h6.477c-.194 1.522-.7 2.634-1.475 3.406-.941.942-2.416 1.982-5.002 1.982-3.987 0-7.104-3.215-7.104-7.202s3.117-7.201 7.104-7.201c2.151 0 3.722.846 4.881 1.933l1.91-1.91c-1.62-1.546-3.77-2.73-6.791-2.73C5.154.57.563 5.018.563 10.479c0 5.462 4.591 9.908 10.053 9.908 2.947 0 5.172-.968 6.91-2.78 1.788-1.788 2.345-4.302 2.345-6.331 0-.627-.048-1.208-.145-1.69h-9.11Zm67.962 2.102c-.531-1.425-2.151-4.06-5.462-4.06-3.286 0-6.017 2.586-6.017 6.38 0 3.575 2.707 6.379 6.331 6.379 2.923 0 4.615-1.788 5.317-2.828l-2.174-1.45c-.725 1.063-1.716 1.764-3.143 1.764-1.425 0-2.44-.653-3.093-1.934l8.53-3.528-.289-.723Zm-8.7 2.127c-.072-2.466 1.91-3.721 3.336-3.721 1.112 0 2.053.556 2.368 1.353l-5.704 2.368ZM62.944 20h2.802V1.25h-2.802V20ZM58.35 9.053h-.096c-.628-.75-1.837-1.426-3.358-1.426-3.19 0-6.114 2.803-6.114 6.405 0 3.576 2.924 6.355 6.114 6.355 1.523 0 2.73-.676 3.358-1.449h.096v.918c0 2.44-1.305 3.746-3.406 3.746-1.716 0-2.78-1.232-3.215-2.271l-2.44 1.015c.7 1.69 2.56 3.77 5.655 3.77 3.286 0 6.066-1.934 6.066-6.647V8.015h-2.658v1.038h-.002Zm-3.212 8.822c-1.934 0-3.552-1.62-3.552-3.843 0-2.249 1.618-3.891 3.552-3.891 1.907 0 3.406 1.642 3.406 3.89 0 2.224-1.498 3.844-3.406 3.844ZM91.709 1.249h-6.707V20H87.8v-7.104h3.907c3.103 0 6.154-2.245 6.154-5.823 0-3.577-3.05-5.824-6.152-5.824Zm.072 9.037H87.8V3.86h3.981c2.093 0 3.28 1.732 3.28 3.214 0 1.452-1.188 3.213-3.28 3.213Zm17.298-2.692c-2.027 0-4.125.892-4.994 2.87l2.484 1.037c.531-1.036 1.521-1.375 2.558-1.375 1.447 0 2.919.868 2.943 2.412v.193c-.507-.29-1.593-.723-2.919-.723-2.678 0-5.405 1.472-5.405 4.221 0 2.51 2.196 4.125 4.656 4.125 1.881 0 2.919-.844 3.57-1.834h.096v1.447h2.703v-7.19c.002-3.326-2.485-5.183-5.692-5.183Zm-.339 10.276c-.915 0-2.195-.459-2.195-1.593 0-1.447 1.593-2.002 2.969-2.002 1.228 0 1.809.265 2.556.627-.218 1.738-1.713 2.968-3.33 2.968Zm15.874-9.867-3.208 8.13h-.096l-3.33-8.13h-3.015l4.993 11.363-2.847 6.32h2.919l7.697-17.683h-3.113ZM99.405 20h2.798V1.25h-2.797V20Z" fill="#212121"/></symbol><symbol fill="none" xmlns="http://www.w3.org/2000/svg" viewBox="0 0 105 11" id="download-on-the"><path d="M.977 1.066v8.984H4.22c2.677 0 4.227-1.65 4.227-4.52 0-2.826-1.562-4.464-4.227-4.464H.977Zm1.394 1.27h1.694c1.861 0 2.963 1.183 2.963 3.213 0 2.06-1.083 3.23-2.963 3.23H2.37V2.337ZM13.195 10.18c1.98 0 3.194-1.325 3.194-3.523 0-2.185-1.22-3.517-3.194-3.517-1.98 0-3.2 1.332-3.2 3.517 0 2.198 1.214 3.524 3.2 3.524Zm0-1.188c-1.164 0-1.818-.853-1.818-2.335 0-1.47.654-2.328 1.818-2.328 1.158 0 1.818.859 1.818 2.328 0 1.475-.66 2.335-1.818 2.335ZM26.727 3.27h-1.338L24.18 8.444h-.106L22.68 3.27h-1.282l-1.395 5.174h-.1L18.69 3.27h-1.358l1.868 6.78h1.376l1.395-4.993h.105l1.401 4.993h1.389l1.861-6.78ZM28.268 10.05h1.339V6.084c0-1.058.629-1.718 1.619-1.718s1.463.542 1.463 1.631v4.053h1.338V5.66c0-1.612-.834-2.52-2.347-2.52-1.021 0-1.693.454-2.023 1.207h-.1V3.27h-1.289v6.78ZM36.135 10.05h1.339V.624h-1.339v9.426ZM42.508 10.18c1.98 0 3.193-1.325 3.193-3.523 0-2.185-1.22-3.517-3.193-3.517-1.98 0-3.2 1.332-3.2 3.517 0 2.198 1.214 3.524 3.2 3.524Zm0-1.188c-1.165 0-1.818-.853-1.818-2.335 0-1.47.653-2.328 1.818-2.328 1.157 0 1.817.859 1.817 2.328 0 1.475-.66 2.335-1.817 2.335ZM49.69 9.035c-.729 0-1.258-.355-1.258-.965 0-.597.423-.915 1.357-.977l1.656-.106v.566c0 .84-.747 1.482-1.756 1.482Zm-.343 1.127c.89 0 1.631-.386 2.036-1.065h.106v.953h1.288V5.418c0-1.432-.958-2.278-2.658-2.278-1.538 0-2.633.747-2.77 1.91h1.295c.149-.479.666-.753 1.413-.753.915 0 1.388.405 1.388 1.121v.585l-1.837.106c-1.612.1-2.52.803-2.52 2.023 0 1.24.952 2.03 2.259 2.03ZM57.32 10.162c.933 0 1.724-.442 2.129-1.183h.105v1.07h1.283V.625h-1.339v3.723h-.1c-.367-.747-1.15-1.189-2.079-1.189-1.712 0-2.814 1.357-2.814 3.499 0 2.148 1.09 3.505 2.814 3.505Zm.38-5.802c1.12 0 1.823.89 1.823 2.303 0 1.42-.697 2.297-1.824 2.297-1.133 0-1.811-.865-1.811-2.303 0-1.426.684-2.297 1.811-2.297ZM69.517 10.18c1.98 0 3.193-1.325 3.193-3.523 0-2.185-1.22-3.517-3.193-3.517-1.98 0-3.2 1.332-3.2 3.517 0 2.198 1.214 3.524 3.2 3.524Zm0-1.188c-1.164 0-1.818-.853-1.818-2.335 0-1.47.654-2.328 1.818-2.328 1.158 0 1.818.859 1.818 2.328 0 1.475-.66 2.335-1.818 2.335ZM74.482 10.05h1.339V6.084c0-1.058.629-1.718 1.618-1.718.99 0 1.463.542 1.463 1.631v4.053h1.339V5.66c0-1.612-.834-2.52-2.347-2.52-1.021 0-1.694.454-2.023 1.207h-.1V3.27h-1.289v6.78ZM86.405 1.583v1.718h-1.077v1.127h1.077v3.829c0 1.307.592 1.83 2.08 1.83.261 0 .51-.03.728-.068V8.904c-.187.02-.305.032-.51.032-.666 0-.96-.312-.96-1.021V4.428h1.47V3.301h-1.47V1.583h-1.338ZM91.01 10.05h1.338V6.09c0-1.027.61-1.718 1.706-1.718.947 0 1.45.548 1.45 1.631v4.047h1.34V5.673c0-1.612-.891-2.527-2.335-2.527-1.021 0-1.737.454-2.067 1.214h-.106V.624H91.01v9.426ZM101.672 4.279c.99 0 1.637.69 1.668 1.755h-3.424c.075-1.058.766-1.755 1.756-1.755Zm1.662 3.94c-.249.53-.803.822-1.612.822-1.071 0-1.762-.753-1.806-1.942v-.075h4.788v-.467c0-2.129-1.14-3.417-3.026-3.417-1.911 0-3.125 1.375-3.125 3.542 0 2.166 1.189 3.499 3.131 3.499 1.55 0 2.634-.747 2.939-1.961h-1.289Z" fill="#616161"/></symbol><symbol fill="none" xmlns="http://www.w3.org/2000/svg" viewBox="0 0 15 12" id="like"><path d="M12.73 1.225c1.6 1.37 1.676 3.808.254 5.28L8.06 11.585a.783.783 0 0 1-1.143 0L1.99 6.506C.568 5.033.645 2.596 2.244 1.225 3.641.03 5.723.26 6.992 1.58l.508.508.482-.508C9.277.26 11.334.031 12.73 1.225Z" fill="#FDBC30"/></symbol></svg>