<svg width="16" height="19" fill="none" xmlns="http://www.w3.org/2000/svg"><path d="M8 9.25a4.486 4.486 0 0 1-4.5-4.5C3.5 2.29 5.504.25 8 .25c2.46 0 4.5 2.04 4.5 4.5 0 2.496-2.04 4.5-4.5 4.5Zm3.129 1.125c2.601 0 4.746 2.145 4.746 4.746v1.441c0 .95-.773 1.688-1.688 1.688H1.813c-.95 0-1.688-.738-1.688-1.688v-1.44c0-2.602 2.11-4.747 4.71-4.747h.599c.773.387 1.652.563 2.566.563.914 0 1.758-.176 2.531-.563h.598Z" fill="url('#a')"/><defs><linearGradient id="a" x1="-7.028" y1="-22.35" x2="23.903" y2="-20.985" gradientUnits="userSpaceOnUse"><stop stop-color="#FFB800"/><stop offset="1" stop-color="#FF8A00"/></linearGradient></defs></svg>