<svg width="0" height="0" class="hidden">
  <symbol fill="none" xmlns="http://www.w3.org/2000/svg" viewBox="0 0 28 33" id="apple">
    <path d="M22.6535 17.4512C22.686 14.9297 24.0401 12.5438 26.1883 11.2231C24.8331 9.28766 22.5632 8.06051 20.2016 7.98662C17.6827 7.72223 15.2408 9.49386 13.9572 9.49386C12.6488 9.49386 10.6726 8.01287 8.54449 8.05665C5.77061 8.14627 3.18466 9.72334 1.83511 12.1485C-1.06589 17.1711 1.09799 24.5527 3.87691 28.6126C5.26726 30.6006 6.89218 32.8213 9.01835 32.7425C11.0989 32.6562 11.876 31.4158 14.3875 31.4158C16.8756 31.4158 17.6046 32.7425 19.774 32.6925C22.0065 32.6562 23.4131 30.6956 24.7547 28.6887C25.7537 27.2722 26.5224 25.7066 27.0323 24.05C24.4087 22.9403 22.6566 20.2999 22.6535 17.4512Z" fill="#F17228"></path>
    <path d="M18.556 5.31662C19.7733 3.85531 20.373 1.97704 20.2278 0.0806885C18.368 0.276019 16.6501 1.16486 15.4164 2.5701C14.21 3.9431 13.5821 5.78832 13.7008 7.61219C15.5613 7.63134 17.3902 6.7666 18.556 5.31662Z" fill="#F17228"></path>
  </symbol>
  <symbol xmlns="http://www.w3.org/2000/svg" viewBox="0 0 24 15" id="delivery">
    <path d="M19 5C21.4609 5.03516 23.4648 7.03906 23.5 9.46484C23.5 11.9961 21.4609 14.0352 18.9297 14C16.5039 14 14.5 11.9961 14.5 9.53516C14.4648 8.16406 15.0977 6.93359 16.0469 6.08984L15.625 5.35156C14.2539 6.47656 13.5859 8.09375 13.6562 9.74609C13.6562 10.2383 13.2695 10.625 12.8125 10.625H9.85938C9.33203 12.5938 7.57422 14 5.5 14C2.96875 14 0.929688 11.9609 1 9.39453C1.03516 7.03906 2.93359 5.10547 5.32422 5.03516C5.81641 5 6.30859 5.07031 6.76562 5.21094L7.15234 4.47266C6.83594 3.98047 6.34375 3.59375 5.5 3.59375H3.53125C3.03906 3.59375 2.6875 3.24219 2.6875 2.78516C2.65234 2.29297 3.07422 1.90625 3.53125 1.90625H5.5C7.43359 1.90625 8.38281 2.50391 8.98047 3.3125H14.3945L13.7266 2.1875H11.4062C11.0898 2.1875 10.8438 1.94141 10.8438 1.625V1.0625C10.8438 0.78125 11.0898 0.5 11.4062 0.5H14.2188C14.5 0.5 14.7812 0.675781 14.9219 0.921875L15.7305 2.25781L17.0312 0.78125C17.207 0.605469 17.418 0.5 17.6641 0.5H19.2812C19.7383 0.5 20.125 0.886719 20.125 1.34375V2.46875C20.125 2.96094 19.7383 3.3125 19.2812 3.3125H16.3633L17.5234 5.24609C17.9805 5.10547 18.5078 5 19 5ZM5.5 12.3125C6.625 12.3125 7.60938 11.6445 8.06641 10.625H5.21875C4.55078 10.625 4.16406 9.95703 4.48047 9.39453L5.92188 6.72266C5.78125 6.72266 5.64062 6.6875 5.5 6.6875C3.91797 6.6875 2.6875 7.95312 2.6875 9.5C2.6875 11.082 3.91797 12.3125 5.5 12.3125ZM21.7773 9.67578C21.8828 8.05859 20.582 6.6875 19 6.72266C18.7891 6.72266 18.6133 6.72266 18.4375 6.75781L20.125 9.60547C20.3008 9.88672 20.1953 10.2383 19.9492 10.3789L19.457 10.6602C19.1758 10.8359 18.8594 10.7305 18.6836 10.4844L16.9609 7.56641C16.4688 8.09375 16.1875 8.76172 16.1875 9.5C16.1875 11.1172 17.5234 12.418 19.1406 12.3125C20.5469 12.2422 21.707 11.082 21.7773 9.67578Z"></path>
  </symbol>
  <symbol fill="none" xmlns="http://www.w3.org/2000/svg" viewBox="0 0 19 19" id="discount">
    <path d="M0 9.14453V1.9375C0 1.02344 0.738281 0.25 1.6875 0.25H8.85938C9.31641 0.25 9.73828 0.460938 10.0547 0.777344L17.4727 8.19531C18.1406 8.86328 18.1406 9.95312 17.4727 10.5859L10.3008 17.7578C9.66797 18.4258 8.57812 18.4258 7.91016 17.7578L0.492188 10.3398C0.175781 10.0234 0 9.60156 0 9.14453ZM3.9375 2.5C2.98828 2.5 2.25 3.27344 2.25 4.1875C2.25 5.13672 2.98828 5.875 3.9375 5.875C4.85156 5.875 5.625 5.13672 5.625 4.1875C5.625 3.27344 4.85156 2.5 3.9375 2.5Z" fill="white"></path>
  </symbol>
  <symbol fill="none" xmlns="http://www.w3.org/2000/svg" viewBox="0 0 24 19" id="email">
    <path d="M23.5312 6.45312C23.7188 6.3125 24 6.45312 24 6.6875V16.25C24 17.5156 22.9688 18.5 21.75 18.5H2.25C0.984375 18.5 0 17.5156 0 16.25V6.6875C0 6.45312 0.234375 6.3125 0.421875 6.45312C1.5 7.29688 2.85938 8.32812 7.64062 11.7969C8.625 12.5 10.3125 14.0469 12 14.0469C13.6406 14.0469 15.375 12.5 16.3125 11.7969C21.0938 8.32812 22.4531 7.29688 23.5312 6.45312ZM12 12.5C10.875 12.5469 9.32812 11.1406 8.53125 10.5781C2.29688 6.07812 1.82812 5.65625 0.421875 4.53125C0.140625 4.34375 0 4.01562 0 3.64062V2.75C0 1.53125 0.984375 0.5 2.25 0.5H21.75C22.9688 0.5 24 1.53125 24 2.75V3.64062C24 4.01562 23.8125 4.34375 23.5312 4.53125C22.125 5.65625 21.6562 6.07812 15.4219 10.5781C14.625 11.1406 13.0781 12.5469 12 12.5Z" fill="#ADADAD"></path>
  </symbol>
  <symbol xmlns="http://www.w3.org/2000/svg" viewBox="0 0 24 24" id="fackebook">
    <path d="M23.625 12C23.625 5.57812 18.4219 0.375 12 0.375C5.57812 0.375 0.375 5.57812 0.375 12C0.375 17.8125 4.59375 22.6406 10.1719 23.4844V15.375H7.21875V12H10.1719V9.46875C10.1719 6.5625 11.9062 4.92188 14.5312 4.92188C15.8438 4.92188 17.1562 5.15625 17.1562 5.15625V8.01562H15.7031C14.25 8.01562 13.7812 8.90625 13.7812 9.84375V12H17.0156L16.5 15.375H13.7812V23.4844C19.3594 22.6406 23.625 17.8125 23.625 12Z"></path>
  </symbol>
  <symbol fill="none" xmlns="http://www.w3.org/2000/svg" viewBox="0 0 36 40" id="googleplay">
    <path fill-rule="evenodd" clip-rule="evenodd" d="M1.35313 1.7148C1.10152 2.15309 0.959473 2.72559 0.959473 3.41453V36.5885C0.959473 37.279 1.10169 37.8512 1.35359 38.2893L19.6393 20.001L1.35313 1.7148ZM2.04397 39.0131C2.73667 39.435 3.70424 39.394 4.77097 38.789L26.2321 26.5938L20.3464 20.7081L2.04397 39.0131ZM27.1348 26.0823L34.0225 22.169C36.118 20.9765 36.118 19.028 34.0225 17.837L27.1319 13.9216L21.0534 20.0009L27.1348 26.0823ZM26.2301 13.4092L4.77097 1.21554C3.70422 0.609347 2.73663 0.569202 2.04393 0.991386L20.3463 19.2938L26.2301 13.4092Z" fill="#F17228"></path>
  </symbol>
  <symbol xmlns="http://www.w3.org/2000/svg" viewBox="0 0 22 22" id="instagram">
    <path d="M11.5 5.60938C8.5 5.60938 6.10938 8.04688 6.10938 11C6.10938 14 8.5 16.3906 11.5 16.3906C14.4531 16.3906 16.8906 14 16.8906 11C16.8906 8.04688 14.4531 5.60938 11.5 5.60938ZM11.5 14.5156C9.57812 14.5156 7.98438 12.9688 7.98438 11C7.98438 9.07812 9.53125 7.53125 11.5 7.53125C13.4219 7.53125 14.9688 9.07812 14.9688 11C14.9688 12.9688 13.4219 14.5156 11.5 14.5156ZM18.3438 5.42188C18.3438 4.71875 17.7812 4.15625 17.0781 4.15625C16.375 4.15625 15.8125 4.71875 15.8125 5.42188C15.8125 6.125 16.375 6.6875 17.0781 6.6875C17.7812 6.6875 18.3438 6.125 18.3438 5.42188ZM21.9062 6.6875C21.8125 5 21.4375 3.5 20.2188 2.28125C19 1.0625 17.5 0.6875 15.8125 0.59375C14.0781 0.5 8.875 0.5 7.14062 0.59375C5.45312 0.6875 4 1.0625 2.73438 2.28125C1.51562 3.5 1.14062 5 1.04688 6.6875C0.953125 8.42188 0.953125 13.625 1.04688 15.3594C1.14062 17.0469 1.51562 18.5 2.73438 19.7656C4 20.9844 5.45312 21.3594 7.14062 21.4531C8.875 21.5469 14.0781 21.5469 15.8125 21.4531C17.5 21.3594 19 20.9844 20.2188 19.7656C21.4375 18.5 21.8125 17.0469 21.9062 15.3594C22 13.625 22 8.42188 21.9062 6.6875ZM19.6562 17.1875C19.3281 18.125 18.5781 18.8281 17.6875 19.2031C16.2812 19.7656 13 19.625 11.5 19.625C9.95312 19.625 6.67188 19.7656 5.3125 19.2031C4.375 18.8281 3.67188 18.125 3.29688 17.1875C2.73438 15.8281 2.875 12.5469 2.875 11C2.875 9.5 2.73438 6.21875 3.29688 4.8125C3.67188 3.92188 4.375 3.21875 5.3125 2.84375C6.67188 2.28125 9.95312 2.42188 11.5 2.42188C13 2.42188 16.2812 2.28125 17.6875 2.84375C18.5781 3.17188 19.2812 3.92188 19.6562 4.8125C20.2188 6.21875 20.0781 9.5 20.0781 11C20.0781 12.5469 20.2188 15.8281 19.6562 17.1875Z"></path>
  </symbol>
  <symbol xmlns="http://www.w3.org/2000/svg" viewBox="0 0 14 19" id="location">
    <path d="M6.29688 18.3984C1.16406 11.0156 0.25 10.2422 0.25 7.5C0.25 3.77344 3.23828 0.75 7 0.75C10.7266 0.75 13.75 3.77344 13.75 7.5C13.75 10.2422 12.8008 11.0156 7.66797 18.3984C7.35156 18.8906 6.61328 18.8906 6.29688 18.3984ZM7 10.3125C8.54688 10.3125 9.8125 9.08203 9.8125 7.5C9.8125 5.95312 8.54688 4.6875 7 4.6875C5.41797 4.6875 4.1875 5.95312 4.1875 7.5C4.1875 9.08203 5.41797 10.3125 7 10.3125Z"></path>
  </symbol>
  <symbol xmlns="http://www.w3.org/2000/svg" viewBox="0 0 16 19" id="pickup">
    <path d="M12.375 5.875H15.75V15.4375C15.75 17.0195 14.4844 18.25 12.9375 18.25H2.8125C1.23047 18.25 0 17.0195 0 15.4375V5.875H3.375V4.75C3.375 2.28906 5.37891 0.25 7.875 0.25C10.3359 0.25 12.375 2.28906 12.375 4.75V5.875ZM5.625 4.75V5.875H10.125V4.75C10.125 3.51953 9.10547 2.5 7.875 2.5C6.60938 2.5 5.625 3.51953 5.625 4.75ZM11.25 8.96875C11.707 8.96875 12.0938 8.61719 12.0938 8.125C12.0938 7.66797 11.707 7.28125 11.25 7.28125C10.7578 7.28125 10.4062 7.66797 10.4062 8.125C10.4062 8.61719 10.7578 8.96875 11.25 8.96875ZM4.5 8.96875C4.95703 8.96875 5.34375 8.61719 5.34375 8.125C5.34375 7.66797 4.95703 7.28125 4.5 7.28125C4.00781 7.28125 3.65625 7.66797 3.65625 8.125C3.65625 8.61719 4.00781 8.96875 4.5 8.96875Z"></path>
  </symbol>
  <symbol xmlns="http://www.w3.org/2000/svg" viewBox="0 0 19 19" id="search">
    <path d="M17.7539 15.8242C18.0703 16.1758 18.0703 16.7031 17.7188 17.0195L16.7344 18.0039C16.418 18.3555 15.8906 18.3555 15.5391 18.0039L12.0586 14.5234C11.8828 14.3477 11.8125 14.1367 11.8125 13.9258V13.3281C10.5469 14.3125 9 14.875 7.3125 14.875C3.26953 14.875 0 11.6055 0 7.5625C0 3.55469 3.26953 0.25 7.3125 0.25C11.3203 0.25 14.625 3.55469 14.625 7.5625C14.625 9.28516 14.0273 10.832 13.0781 12.0625H13.6406C13.8516 12.0625 14.0625 12.168 14.2383 12.3086L17.7539 15.8242ZM7.3125 12.0625C9.77344 12.0625 11.8125 10.0586 11.8125 7.5625C11.8125 5.10156 9.77344 3.0625 7.3125 3.0625C4.81641 3.0625 2.8125 5.10156 2.8125 7.5625C2.8125 10.0586 4.81641 12.0625 7.3125 12.0625Z"></path>
  </symbol>
  <symbol fill="none" xmlns="http://www.w3.org/2000/svg" viewBox="0 0 25 24" id="star">
    <path d="M11.1289 1.52344C11.6445 0.492188 13.1055 0.535156 13.5781 1.52344L16.4141 7.23828L22.6875 8.14062C23.8047 8.3125 24.2344 9.6875 23.418 10.5039L18.9062 14.9297L19.9805 21.1602C20.1523 22.2773 18.9492 23.1367 17.9609 22.6211L12.375 19.6562L6.74609 22.6211C5.75781 23.1367 4.55469 22.2773 4.72656 21.1602L5.80078 14.9297L1.28906 10.5039C0.472656 9.6875 0.902344 8.3125 2.01953 8.14062L8.33594 7.23828L11.1289 1.52344Z" fill="#FFB30E"></path>
  </symbol>
  <symbol fill="none" xmlns="http://www.w3.org/2000/svg" viewBox="0 0 18 18" id="time">
    <path d="M9 0.53125C13.8164 0.53125 17.7188 4.43359 17.7188 9.25C17.7188 14.0664 13.8164 17.9688 9 17.9688C4.18359 17.9688 0.28125 14.0664 0.28125 9.25C0.28125 4.43359 4.18359 0.53125 9 0.53125ZM12.2344 11.5352C12.3047 11.4648 12.375 11.3242 12.375 11.1836C12.375 11.0078 12.2695 10.8672 12.1641 10.7617L10.125 9.25V4.1875C10.125 3.90625 9.84375 3.625 9.5625 3.625H8.4375C8.12109 3.625 7.875 3.90625 7.875 4.1875V9.67188C7.875 10.1289 8.05078 10.5156 8.40234 10.7617L10.7578 12.5195C10.8281 12.5898 10.9688 12.6602 11.0742 12.6602C11.2852 12.6602 11.4258 12.5547 11.5312 12.4141L12.2344 11.5352Z" fill="white"></path>
  </symbol>
  <symbol xmlns="http://www.w3.org/2000/svg" viewBox="0 0 24 20" id="twitter">
    <path d="M21.5156 5.125C22.4531 4.42188 23.2969 3.57812 23.9531 2.59375C23.1094 2.96875 22.125 3.25 21.1406 3.34375C22.1719 2.73438 22.9219 1.79688 23.2969 0.625C22.3594 1.1875 21.2812 1.60938 20.2031 1.84375C19.2656 0.859375 18 0.296875 16.5938 0.296875C13.875 0.296875 11.6719 2.5 11.6719 5.21875C11.6719 5.59375 11.7188 5.96875 11.8125 6.34375C7.73438 6.10938 4.07812 4.14062 1.64062 1.1875C1.21875 1.89062 0.984375 2.73438 0.984375 3.67188C0.984375 5.35938 1.82812 6.85938 3.1875 7.75C2.39062 7.70312 1.59375 7.51562 0.9375 7.14062V7.1875C0.9375 9.57812 2.625 11.5469 4.875 12.0156C4.5 12.1094 4.03125 12.2031 3.60938 12.2031C3.28125 12.2031 3 12.1562 2.67188 12.1094C3.28125 14.0781 5.10938 15.4844 7.26562 15.5312C5.57812 16.8438 3.46875 17.6406 1.17188 17.6406C0.75 17.6406 0.375 17.5938 0 17.5469C2.15625 18.9531 4.73438 19.75 7.54688 19.75C16.5938 19.75 21.5156 12.2969 21.5156 5.78125C21.5156 5.54688 21.5156 5.35938 21.5156 5.125Z"></path>
  </symbol>
  <symbol fill="none" xmlns="http://www.w3.org/2000/svg" viewBox="0 0 16 19" id="user">
    <path d="M8 9.25C5.50391 9.25 3.5 7.24609 3.5 4.75C3.5 2.28906 5.50391 0.25 8 0.25C10.4609 0.25 12.5 2.28906 12.5 4.75C12.5 7.24609 10.4609 9.25 8 9.25ZM11.1289 10.375C13.7305 10.375 15.875 12.5195 15.875 15.1211V16.5625C15.875 17.5117 15.1016 18.25 14.1875 18.25H1.8125C0.863281 18.25 0.125 17.5117 0.125 16.5625V15.1211C0.125 12.5195 2.23438 10.375 4.83594 10.375H5.43359C6.20703 10.7617 7.08594 10.9375 8 10.9375C8.91406 10.9375 9.75781 10.7617 10.5312 10.375H11.1289Z" fill="url(#paint0_linear_401_1279)"></path>
    <defs>
      <linearGradient id="paint0_linear_401_1279" x1="-7.02825" y1="-22.35" x2="23.9034" y2="-20.9848" gradientUnits="userSpaceOnUse">
        <stop stop-color="#FFB800"></stop>
        <stop offset="1" stop-color="#FF8A00"></stop>
      </linearGradient>
    </defs>
  </symbol>
  <symbol xmlns="http://www.w3.org/2000/svg" viewBox="0 0 9 14" id="arrowright">
    <path d="M8.40625 7.53125L2.34375 13.625C2.03125 13.9062 1.5625 13.9062 1.28125 13.625L0.5625 12.9062C0.28125 12.625 0.28125 12.1562 0.5625 11.8438L5.375 7L0.5625 2.1875C0.28125 1.875 0.28125 1.40625 0.5625 1.125L1.28125 0.40625C1.5625 0.125 2.03125 0.125 2.34375 0.40625L8.40625 6.5C8.6875 6.78125 8.6875 7.25 8.40625 7.53125Z"></path>
  </symbol>
  <symbol fill="none" xmlns="http://www.w3.org/2000/svg" viewBox="0 0 3 96" id="line-vertical">
    <path fill-rule="evenodd" clip-rule="evenodd" d="M0.75 96V0H2.75V96H0.75Z" fill="#CFCFCF"></path>
  </symbol>
  <symbol fill="none" xmlns="http://www.w3.org/2000/svg" viewBox="0 0 113 25" id="app-store">
    <path d="M70.7888 2.80141V6.23794H68.6347V8.4916H70.7888V16.1491C70.7888 18.7638 71.9716 19.8097 74.9475 19.8097C75.4704 19.8097 75.9685 19.7475 76.4042 19.6727V17.444C76.0307 17.4813 75.7941 17.5062 75.3832 17.5062C74.051 17.5062 73.4658 16.8837 73.4658 15.4643V8.4916H76.4042V6.23794H73.4658V2.80141H70.7888Z" fill="#212121"></path>
    <path d="M83.985 19.9965C87.9445 19.9965 90.3725 17.3444 90.3725 12.9491C90.3725 8.57876 87.932 5.9142 83.985 5.9142C80.0255 5.9142 77.5851 8.57876 77.5851 12.9491C77.5851 17.3444 80.0131 19.9965 83.985 19.9965ZM83.985 17.6183C81.6566 17.6183 80.3493 15.9125 80.3493 12.9491C80.3493 10.0106 81.6566 8.29238 83.985 8.29238C86.3009 8.29238 87.6208 10.0106 87.6208 12.9491C87.6208 15.9 86.3009 17.6183 83.985 17.6183Z" fill="#212121"></path>
    <path d="M92.4498 19.735H95.1268V11.7289C95.1268 9.82387 96.5587 8.5414 98.5882 8.5414C99.0614 8.5414 99.8583 8.62856 100.082 8.70327V6.06362C99.796 5.98891 99.2855 5.95156 98.8871 5.95156C97.119 5.95156 95.6124 6.92275 95.2264 8.25502H95.0272V6.17568H92.4498V19.735Z" fill="#212121"></path>
    <path d="M106.729 8.19277C108.709 8.19277 110.004 9.57485 110.066 11.704H103.218C103.367 9.5873 104.75 8.19277 106.729 8.19277ZM110.054 16.0744C109.556 17.1327 108.448 17.7179 106.829 17.7179C104.687 17.7179 103.305 16.2113 103.218 13.8331V13.6837H112.793V12.7499C112.793 8.4916 110.514 5.9142 106.742 5.9142C102.919 5.9142 100.491 8.66591 100.491 12.9989C100.491 17.3319 102.869 19.9965 106.754 19.9965C109.855 19.9965 112.021 18.5023 112.631 16.0744H110.054Z" fill="#212121"></path>
    <path d="M53.2334 14.7278C53.4399 18.0573 56.2145 20.1867 60.3442 20.1867C64.7578 20.1867 67.5195 17.9541 67.5195 14.3922C67.5195 11.5918 65.9451 10.0431 62.1251 9.15268L60.0732 8.64937C57.647 8.08154 56.6662 7.32013 56.6662 5.99089C56.6662 4.3132 58.189 3.21625 60.4733 3.21625C62.6413 3.21625 64.1383 4.28739 64.4094 6.00379H67.2227C67.0549 2.86781 64.2932 0.661011 60.512 0.661011C56.4468 0.661011 53.7367 2.86781 53.7367 6.18447C53.7367 8.92039 55.2724 10.5464 58.6407 11.3337L61.0411 11.9144C63.506 12.4951 64.59 13.3469 64.59 14.7665C64.59 16.4183 62.8865 17.6185 60.5636 17.6185C58.0729 17.6185 56.3436 16.4958 56.0984 14.7278H53.2334Z" fill="#212121"></path>
    <path d="M25.5024 5.95156C23.6596 5.95156 22.0659 6.87294 21.2441 8.41689H21.0449V6.17568H18.4675V24.2423H21.1445V17.6806H21.3562C22.0659 19.1124 23.5974 19.9591 25.5273 19.9591C28.9514 19.9591 31.1303 17.2572 31.1303 12.9491C31.1303 8.64101 28.9514 5.95156 25.5024 5.95156ZM24.7429 17.556C22.5017 17.556 21.0947 15.788 21.0947 12.9616C21.0947 10.1227 22.5017 8.35463 24.7553 8.35463C27.0214 8.35463 28.3786 10.0853 28.3786 12.9491C28.3786 15.8253 27.0214 17.556 24.7429 17.556Z" fill="#212121"></path>
    <path d="M40.4976 5.95156C38.6548 5.95156 37.0611 6.87294 36.2393 8.41689H36.0401V6.17568H33.4627V24.2423H36.1397V17.6806H36.3513C37.0611 19.1124 38.5926 19.9591 40.5225 19.9591C43.9466 19.9591 46.1255 17.2572 46.1255 12.9491C46.1255 8.64101 43.9466 5.95156 40.4976 5.95156ZM39.7381 17.556C37.4969 17.556 36.0899 15.788 36.0899 12.9616C36.0899 10.1227 37.4969 8.35463 39.7505 8.35463C42.0166 8.35463 43.3738 10.0853 43.3738 12.9491C43.3738 15.8253 42.0166 17.556 39.7381 17.556Z" fill="#212121"></path>
    <path d="M13.6645 19.735H16.7359L10.0123 1.1127H6.90211L0.178467 19.735H3.14668L4.86308 14.7923H11.961L13.6645 19.735ZM8.30879 4.49388H8.52818L11.2254 12.3661H5.59868L8.30879 4.49388Z" fill="#212121"></path>
  </symbol>
  <symbol fill="none" xmlns="http://www.w3.org/2000/svg" viewBox="0 0 60 10" id="get-it-on">
    <path d="M10.1271 5.36442C10.1271 6.62142 9.75507 7.62192 9.00957 8.36892C8.16357 9.25692 7.05958 9.70092 5.70358 9.70092C4.40458 9.70092 3.29908 9.25091 2.39158 8.35091C1.48258 7.44941 1.02808 6.33341 1.02808 5.00141C1.02808 3.66791 1.48258 2.55191 2.39158 1.65191C3.29908 0.750415 4.40458 0.300416 5.70358 0.300416C6.34858 0.300416 6.96508 0.426415 7.55008 0.676915C8.13658 0.928915 8.60608 1.26342 8.95708 1.68192L8.16657 2.47392C7.57107 1.76142 6.75057 1.40592 5.70207 1.40592C4.75407 1.40592 3.93507 1.73892 3.24357 2.40492C2.55207 3.07092 2.20708 3.93642 2.20708 4.99992C2.20708 6.06342 2.55207 6.92891 3.24357 7.59491C3.93507 8.26091 4.75407 8.59391 5.70207 8.59391C6.70707 8.59391 7.54558 8.25941 8.21608 7.58891C8.65108 7.15241 8.90307 6.54491 8.97057 5.76641H5.70207V4.68492H10.0626C10.1076 4.92042 10.1271 5.14692 10.1271 5.36442Z" fill="#616161"></path>
    <path d="M17.0422 1.6055H12.9442V4.4585H16.6402V5.54H12.9442V8.393H17.0422V9.5H11.7877V0.5H17.0422V1.6055Z" fill="#616161"></path>
    <path d="M21.9185 9.5H20.7621V1.6055H18.248V0.5H24.4325V1.6055H21.9185V9.5Z" fill="#616161"></path>
    <path d="M28.907 9.5V0.5H30.0635V9.5H28.907Z" fill="#616161"></path>
    <path d="M35.1922 9.5H34.0357V1.6055H31.5217V0.5H37.7062V1.6055H35.1922V9.5Z" fill="#616161"></path>
    <path d="M49.4134 8.33749C48.5284 9.24649 47.4289 9.70099 46.1134 9.70099C44.7979 9.70099 43.6984 9.24649 42.8149 8.33749C41.9299 7.42849 41.4889 6.31549 41.4889 4.99999C41.4889 3.68449 41.9299 2.57149 42.8149 1.66249C43.6984 0.753485 44.7979 0.297485 46.1134 0.297485C47.4214 0.297485 48.5194 0.754985 49.4074 1.66848C50.2954 2.58198 50.7394 3.69199 50.7394 4.99999C50.7394 6.31549 50.2969 7.42849 49.4134 8.33749ZM43.6684 7.58299C44.3344 8.25799 45.1489 8.59399 46.1134 8.59399C47.0779 8.59399 47.8939 8.25649 48.5584 7.58299C49.2244 6.90799 49.5589 6.04699 49.5589 4.99999C49.5589 3.95299 49.2244 3.09199 48.5584 2.41699C47.8939 1.74199 47.0779 1.40599 46.1134 1.40599C45.1489 1.40599 44.3344 1.74349 43.6684 2.41699C43.0039 3.09199 42.6694 3.95299 42.6694 4.99999C42.6694 6.04699 43.0039 6.90799 43.6684 7.58299Z" fill="#616161"></path>
    <path d="M52.3624 9.5V0.5H53.7694L58.1434 7.5005H58.1929L58.1434 5.7665V0.5H59.2999V9.5H58.0924L53.5159 2.159H53.4664L53.5159 3.893V9.5H52.3624Z" fill="#616161"></path>
    <path d="M10.1271 5.36442C10.1271 6.62142 9.75507 7.62192 9.00957 8.36892C8.16357 9.25692 7.05958 9.70092 5.70358 9.70092C4.40458 9.70092 3.29908 9.25091 2.39158 8.35091C1.48258 7.44941 1.02808 6.33341 1.02808 5.00141C1.02808 3.66791 1.48258 2.55191 2.39158 1.65191C3.29908 0.750415 4.40458 0.300416 5.70358 0.300416C6.34858 0.300416 6.96508 0.426415 7.55008 0.676915C8.13658 0.928915 8.60608 1.26342 8.95708 1.68192L8.16657 2.47392C7.57107 1.76142 6.75057 1.40592 5.70207 1.40592C4.75407 1.40592 3.93507 1.73892 3.24357 2.40492C2.55207 3.07092 2.20708 3.93642 2.20708 4.99992C2.20708 6.06342 2.55207 6.92891 3.24357 7.59491C3.93507 8.26091 4.75407 8.59391 5.70207 8.59391C6.70707 8.59391 7.54558 8.25941 8.21608 7.58891C8.65108 7.15241 8.90307 6.54491 8.97057 5.76641H5.70207V4.68492H10.0626C10.1076 4.92042 10.1271 5.14692 10.1271 5.36442Z" stroke="#212121" stroke-width="0.2" stroke-miterlimit="10"></path>
    <path d="M17.0422 1.6055H12.9442V4.4585H16.6402V5.54H12.9442V8.393H17.0422V9.5H11.7877V0.5H17.0422V1.6055Z" stroke="#212121" stroke-width="0.2" stroke-miterlimit="10"></path>
    <path d="M21.9185 9.5H20.7621V1.6055H18.248V0.5H24.4325V1.6055H21.9185V9.5Z" stroke="#212121" stroke-width="0.2" stroke-miterlimit="10"></path>
    <path d="M28.907 9.5V0.5H30.0635V9.5H28.907Z" stroke="#212121" stroke-width="0.2" stroke-miterlimit="10"></path>
    <path d="M35.1922 9.5H34.0357V1.6055H31.5217V0.5H37.7062V1.6055H35.1922V9.5Z" stroke="#212121" stroke-width="0.2" stroke-miterlimit="10"></path>
    <path d="M49.4134 8.33749C48.5284 9.24649 47.4289 9.70099 46.1134 9.70099C44.7979 9.70099 43.6984 9.24649 42.8149 8.33749C41.9299 7.42849 41.4889 6.31549 41.4889 4.99999C41.4889 3.68449 41.9299 2.57149 42.8149 1.66249C43.6984 0.753485 44.7979 0.297485 46.1134 0.297485C47.4214 0.297485 48.5194 0.754985 49.4074 1.66848C50.2954 2.58198 50.7394 3.69199 50.7394 4.99999C50.7394 6.31549 50.2969 7.42849 49.4134 8.33749ZM43.6684 7.58299C44.3344 8.25799 45.1489 8.59399 46.1134 8.59399C47.0779 8.59399 47.8939 8.25649 48.5584 7.58299C49.2244 6.90799 49.5589 6.04699 49.5589 4.99999C49.5589 3.95299 49.2244 3.09199 48.5584 2.41699C47.8939 1.74199 47.0779 1.40599 46.1134 1.40599C45.1489 1.40599 44.3344 1.74349 43.6684 2.41699C43.0039 3.09199 42.6694 3.95299 42.6694 4.99999C42.6694 6.04699 43.0039 6.90799 43.6684 7.58299Z" stroke="#212121" stroke-width="0.2" stroke-miterlimit="10"></path>
    <path d="M52.3624 9.5V0.5H53.7694L58.1434 7.5005H58.1929L58.1434 5.7665V0.5H59.2999V9.5H58.0924L53.5159 2.159H53.4664L53.5159 3.893V9.5H52.3624Z" stroke="#212121" stroke-width="0.2" stroke-miterlimit="10"></path>
  </symbol>
  <symbol fill="none" xmlns="http://www.w3.org/2000/svg" viewBox="0 0 128 27" id="google-play">
    <path d="M41.204 7.62668C37.676 7.62668 34.8005 10.3102 34.8005 14.0062C34.8005 17.6797 37.676 20.3857 41.204 20.3857C44.7335 20.3857 47.609 17.6797 47.609 14.0062C47.6075 10.3102 44.732 7.62668 41.204 7.62668ZM41.204 17.8747C39.2705 17.8747 37.604 16.2802 37.604 14.0077C37.604 11.7112 39.272 10.1407 41.204 10.1407C43.1375 10.1407 44.804 11.7112 44.804 14.0077C44.804 16.2787 43.1375 17.8747 41.204 17.8747ZM27.233 7.62668C23.705 7.62668 20.8295 10.3102 20.8295 14.0062C20.8295 17.6797 23.705 20.3857 27.233 20.3857C30.7625 20.3857 33.638 17.6797 33.638 14.0062C33.638 10.3102 30.7625 7.62668 27.233 7.62668ZM27.233 17.8747C25.2995 17.8747 23.633 16.2802 23.633 14.0077C23.633 11.7112 25.301 10.1407 27.233 10.1407C29.1665 10.1407 30.833 11.7112 30.833 14.0077C30.8345 16.2787 29.1665 17.8747 27.233 17.8747ZM10.616 9.58568V12.2917H17.093C16.8995 13.8142 16.3925 14.9257 15.6185 15.6982C14.6765 16.6402 13.202 17.6797 10.616 17.6797C6.62899 17.6797 3.51199 14.4652 3.51199 10.4782C3.51199 6.49118 6.62899 3.27668 10.616 3.27668C12.767 3.27668 14.3375 4.12268 15.497 5.21018L17.4065 3.30068C15.7865 1.75418 13.637 0.57068 10.616 0.57068C5.15449 0.57068 0.562988 5.01668 0.562988 10.4782C0.562988 15.9397 5.15449 20.3857 10.616 20.3857C13.5635 20.3857 15.788 19.4182 17.5265 17.6062C19.3145 15.8182 19.871 13.3042 19.871 11.2747C19.871 10.6477 19.823 10.0672 19.7255 9.58418H10.616V9.58568ZM78.578 11.6872C78.047 10.2622 76.427 7.62668 73.1165 7.62668C69.83 7.62668 67.0985 10.2127 67.0985 14.0062C67.0985 17.5822 69.806 20.3857 73.43 20.3857C76.3535 20.3857 78.0455 18.5977 78.7475 17.5582L76.5725 16.1077C75.848 17.1712 74.8565 17.8717 73.43 17.8717C72.005 17.8717 70.9895 17.2192 70.337 15.9382L78.8675 12.4102L78.578 11.6872ZM69.878 13.8142C69.806 11.3482 71.7875 10.0927 73.214 10.0927C74.3255 10.0927 75.2675 10.6492 75.5825 11.4457L69.878 13.8142ZM62.9435 20.0002H65.7455V1.24868H62.9435V20.0002ZM58.3505 9.05318H58.2545C57.626 8.30318 56.417 7.62668 54.896 7.62668C51.7055 7.62668 48.782 10.4302 48.782 14.0317C48.782 17.6077 51.7055 20.3872 54.896 20.3872C56.4185 20.3872 57.626 19.7107 58.2545 18.9382H58.3505V19.8562C58.3505 22.2967 57.0455 23.6017 54.944 23.6017C53.228 23.6017 52.1645 22.3702 51.7295 21.3307L49.289 22.3462C49.9895 24.0367 51.8495 26.1157 54.944 26.1157C58.2305 26.1157 61.01 24.1822 61.01 19.4692V8.01518H58.352V9.05318H58.3505ZM55.1375 17.8747C53.204 17.8747 51.5855 16.2547 51.5855 14.0317C51.5855 11.7832 53.204 10.1407 55.1375 10.1407C57.0455 10.1407 58.544 11.7832 58.544 14.0317C58.544 16.2547 57.0455 17.8747 55.1375 17.8747ZM91.709 1.24868H85.0025V20.0002H87.8V12.8962H91.7075C94.8095 12.8962 97.8605 10.6507 97.8605 7.07318C97.8605 3.49568 94.811 1.24868 91.709 1.24868ZM91.781 10.2862H87.8V3.85868H91.781C93.8735 3.85868 95.0615 5.59118 95.0615 7.07318C95.0615 8.52518 93.8735 10.2862 91.781 10.2862ZM109.079 7.59368C107.052 7.59368 104.954 8.48618 104.085 10.4647L106.569 11.5012C107.1 10.4647 108.09 10.1257 109.127 10.1257C110.574 10.1257 112.046 10.9942 112.07 12.5377V12.7312C111.563 12.4417 110.477 12.0082 109.151 12.0082C106.473 12.0082 103.746 13.4797 103.746 16.2292C103.746 18.7387 105.942 20.3542 108.402 20.3542C110.283 20.3542 111.321 19.5097 111.972 18.5197H112.068V19.9672H114.771V12.7777C114.773 9.45068 112.286 7.59368 109.079 7.59368ZM108.74 17.8702C107.825 17.8702 106.545 17.4112 106.545 16.2772C106.545 14.8297 108.138 14.2747 109.514 14.2747C110.742 14.2747 111.323 14.5402 112.07 14.9017C111.852 16.6402 110.357 17.8702 108.74 17.8702ZM124.614 8.00318L121.406 16.1332H121.31L117.98 8.00318H114.965L119.958 19.3657L117.111 25.6867H120.03L127.727 8.00318H124.614ZM99.4055 20.0002H102.203V1.24868H99.4055V20.0002Z" fill="#212121"></path>
  </symbol>
  <symbol fill="none" xmlns="http://www.w3.org/2000/svg" viewBox="0 0 105 11" id="download-on-the">
    <path d="M0.976685 1.06641V10.0499H4.22021C6.89722 10.0499 8.44739 8.40015 8.44739 5.53015C8.44739 2.70374 6.88477 1.06641 4.22021 1.06641H0.976685ZM2.37122 2.33643H4.06458C5.92603 2.33643 7.02795 3.51929 7.02795 5.54883C7.02795 7.6095 5.9447 8.77991 4.06458 8.77991H2.37122V2.33643Z" fill="#616161"></path>
    <path d="M13.195 10.1807C15.1748 10.1807 16.3887 8.85461 16.3887 6.65698C16.3887 4.4718 15.1685 3.13953 13.195 3.13953C11.2153 3.13953 9.99507 4.4718 9.99507 6.65698C9.99507 8.85461 11.2091 10.1807 13.195 10.1807ZM13.195 8.99158C12.0308 8.99158 11.3771 8.13867 11.3771 6.65698C11.3771 5.18774 12.0308 4.32861 13.195 4.32861C14.353 4.32861 15.0129 5.18774 15.0129 6.65698C15.0129 8.13245 14.353 8.99158 13.195 8.99158Z" fill="#616161"></path>
    <path d="M26.727 3.27026H25.3885L24.1807 8.44373H24.0749L22.6803 3.27026H21.3979L20.0033 8.44373H19.9037L18.6897 3.27026H17.3325L19.2002 10.0499H20.5761L21.9706 5.05701H22.0764L23.4772 10.0499H24.8655L26.727 3.27026Z" fill="#616161"></path>
    <path d="M28.2684 10.0499H29.6069V6.08423C29.6069 5.02588 30.2357 4.36597 31.2256 4.36597C32.2154 4.36597 32.6886 4.90759 32.6886 5.99707V10.0499H34.0271V5.66089C34.0271 4.04846 33.1928 3.13953 31.68 3.13953C30.659 3.13953 29.9867 3.59399 29.6567 4.34729H29.5571V3.27026H28.2684V10.0499Z" fill="#616161"></path>
    <path d="M36.1351 10.0499H37.4736V0.62439H36.1351V10.0499Z" fill="#616161"></path>
    <path d="M42.5076 10.1807C44.4873 10.1807 45.7013 8.85461 45.7013 6.65698C45.7013 4.4718 44.4811 3.13953 42.5076 3.13953C40.5278 3.13953 39.3076 4.4718 39.3076 6.65698C39.3076 8.85461 40.5216 10.1807 42.5076 10.1807ZM42.5076 8.99158C41.3434 8.99158 40.6897 8.13867 40.6897 6.65698C40.6897 5.18774 41.3434 4.32861 42.5076 4.32861C43.6655 4.32861 44.3254 5.18774 44.3254 6.65698C44.3254 8.13245 43.6655 8.99158 42.5076 8.99158Z" fill="#616161"></path>
    <path d="M49.6894 9.03516C48.961 9.03516 48.4318 8.6803 48.4318 8.07019C48.4318 7.47253 48.8552 7.15503 49.789 7.09277L51.445 6.98694V7.55347C51.445 8.39392 50.6979 9.03516 49.6894 9.03516ZM49.347 10.162C50.2373 10.162 50.9781 9.776 51.3828 9.09741H51.4886V10.0499H52.7773V5.41809C52.7773 3.98621 51.8186 3.13953 50.119 3.13953C48.5812 3.13953 47.4855 3.8866 47.3486 5.05078H48.6435C48.7929 4.57141 49.3096 4.29749 50.0567 4.29749C50.9719 4.29749 51.445 4.70215 51.445 5.41809V6.0033L49.6085 6.10913C47.996 6.20874 47.0871 6.91223 47.0871 8.13245C47.0871 9.37134 48.0396 10.162 49.347 10.162Z" fill="#616161"></path>
    <path d="M57.3195 10.162C58.2533 10.162 59.044 9.71997 59.4486 8.97913H59.5545V10.0499H60.8369V0.62439H59.4984V4.34729H59.3988C59.0315 3.60022 58.2471 3.1582 57.3195 3.1582C55.6074 3.1582 54.5055 4.51538 54.5055 6.65698C54.5055 8.80481 55.595 10.162 57.3195 10.162ZM57.6992 4.35974C58.8198 4.35974 59.5233 5.25 59.5233 6.66321C59.5233 8.08264 58.8261 8.96045 57.6992 8.96045C56.5662 8.96045 55.8876 8.09509 55.8876 6.65698C55.8876 5.23132 56.5724 4.35974 57.6992 4.35974Z" fill="#616161"></path>
    <path d="M69.5166 10.1807C71.4964 10.1807 72.7104 8.85461 72.7104 6.65698C72.7104 4.4718 71.4902 3.13953 69.5166 3.13953C67.5369 3.13953 66.3167 4.4718 66.3167 6.65698C66.3167 8.85461 67.5307 10.1807 69.5166 10.1807ZM69.5166 8.99158C68.3525 8.99158 67.6988 8.13867 67.6988 6.65698C67.6988 5.18774 68.3525 4.32861 69.5166 4.32861C70.6746 4.32861 71.3345 5.18774 71.3345 6.65698C71.3345 8.13245 70.6746 8.99158 69.5166 8.99158Z" fill="#616161"></path>
    <path d="M74.4822 10.0499H75.8207V6.08423C75.8207 5.02588 76.4495 4.36597 77.4393 4.36597C78.4292 4.36597 78.9023 4.90759 78.9023 5.99707V10.0499H80.2408V5.66089C80.2408 4.04846 79.4066 3.13953 77.8938 3.13953C76.8728 3.13953 76.2004 3.59399 75.8705 4.34729H75.7709V3.27026H74.4822V10.0499Z" fill="#616161"></path>
    <path d="M86.4054 1.58313V3.30139H85.3284V4.42822H86.4054V8.25696C86.4054 9.56433 86.9968 10.0873 88.4848 10.0873C88.7462 10.0873 88.9953 10.0562 89.2132 10.0188V8.90442C89.0264 8.9231 88.9081 8.93555 88.7027 8.93555C88.0365 8.93555 87.7439 8.62427 87.7439 7.91455V4.42822H89.2132V3.30139H87.7439V1.58313H86.4054Z" fill="#616161"></path>
    <path d="M91.0099 10.0499H92.3484V6.09045C92.3484 5.06323 92.9585 4.37219 94.0542 4.37219C95.0005 4.37219 95.5047 4.92004 95.5047 6.0033V10.0499H96.8432V5.67334C96.8432 4.06091 95.953 3.14575 94.5086 3.14575C93.4876 3.14575 92.7717 3.60022 92.4417 4.35974H92.3359V0.62439H91.0099V10.0499Z" fill="#616161"></path>
    <path d="M101.672 4.27881C102.662 4.27881 103.309 4.96985 103.34 6.03442H99.9162C99.9909 4.97607 100.682 4.27881 101.672 4.27881ZM103.334 8.2196C103.085 8.74878 102.531 9.04138 101.722 9.04138C100.651 9.04138 99.9598 8.28809 99.9162 7.099V7.02429H104.704V6.55737C104.704 4.42822 103.564 3.13953 101.678 3.13953C99.7668 3.13953 98.5528 4.51538 98.5528 6.68188C98.5528 8.84839 99.7419 10.1807 101.684 10.1807C103.234 10.1807 104.318 9.43359 104.623 8.2196H103.334Z" fill="#616161"></path>
  </symbol>
  <symbol fill="none" xmlns="http://www.w3.org/2000/svg" viewBox="0 0 15 12" id="like">
    <path d="M12.7305 1.22461C14.3301 2.5957 14.4062 5.0332 12.9844 6.50586L8.05859 11.584C7.75391 11.9141 7.2207 11.9141 6.91602 11.584L1.99023 6.50586C0.568359 5.0332 0.644531 2.5957 2.24414 1.22461C3.64062 0.03125 5.72266 0.259766 6.99219 1.58008L7.5 2.08789L7.98242 1.58008C9.27734 0.259766 11.334 0.03125 12.7305 1.22461Z" fill="#FDBC30"></path>
  </symbol>
</svg>